<?xml version="1.0" encoding="utf-8"?>
<!-- Generator: Adobe Illustrator 26.1.0, SVG Export Plug-In . SVG Version: 6.00 Build 0)  -->
<svg version="1.1" id="Layer_1" xmlns="http://www.w3.org/2000/svg" xmlns:xlink="http://www.w3.org/1999/xlink" x="0px" y="0px"
	 viewBox="0 0 700 700" style="enable-background:new 0 0 700 700;" xml:space="preserve">
<style type="text/css">
	.st0{fill-rule:evenodd;clip-rule:evenodd;}
</style>
<g>
	<path class="st0" d="M349,328.4c-30.3,0-58.1,16-76.7,41.1c-10.7-9.2-22.5-15.3-34.9-18.4c-31.6-7.8-64.9,3.3-90.2,24.2
		c-25.3,20.9-43.4,52.2-43.4,87.1c0,32.5,16.5,67.1,54.5,96.3c-1.7,4-2.6,8.2-2.3,12.6c0.5,7.4,4,13.4,8.2,19.3
		c1.1,2.1,2.9,3.9,5.1,4.9c2.1,1,4.4,1.4,6.7,1.1h345c2.4,0.3,4.8-0.1,6.9-1.2c2.1-1.1,3.9-2.8,5-4.9c4.4-6.2,7.6-12.8,7.7-20.3
		c0.1-3.7-0.7-7.2-2-10.5c59.5-36.3,69.4-104,46-151.7c-12.4-25.2-34.1-45.5-62.3-52.4c-26-6.4-56.7-1.1-88.5,19.6
		c-22.4-28-48.2-42.7-73.9-45.9C356.2,328.6,352.6,328.4,349,328.4L349,328.4z M348.9,350.8c2.7,0,5.4,0.2,8.1,0.5
		c29,3.6,62,27.2,87.4,85.9c1.2,2.8,3.4,4.9,6.1,6.1c2.8,1.1,5.9,1.1,8.6-0.1c2.7-1.2,4.9-3.4,6-6.2c1.1-2.8,1-5.9-0.2-8.6
		c-5.7-13.1-11.8-24.8-18.4-35.1c27.4-17.7,51-20.8,70.2-16.1c21,5.2,37.7,20.4,47.6,40.6c19.7,40,12.4,97.2-44.9,126.9
		c-3.8,1.2-6.6,4.3-7.5,8.2c0,0.2-0.1,0.3-0.1,0.5c0,0.1,0,0.2,0,0.2c-0.7,3.8,0.7,7.6,3.5,10.2c2.5,3.3,2.8,4.8,2.8,6
		c0,0.8-0.3,2.2-1.5,4.3H180.3c-1.4-2.4-1.9-3.8-1.9-4.5c-0.1-0.9,0.1-2.3,2.7-6c2.5-2.5,3.7-6.1,3.2-9.6c0-0.2-0.1-0.4-0.1-0.5
		c0-0.1,0-0.2-0.1-0.2c-0.7-3.4-2.9-6.3-6.1-7.9c-38.6-27.1-51.9-56.3-51.9-82.9c0-27,14.4-52.6,35.2-69.8
		c20.8-17.2,47.5-25.4,70.6-19.7c23.2,5.7,44.9,24.7,57.1,68.5v0c0.8,2.9,2.6,5.4,5.3,6.9c2.6,1.5,5.7,1.9,8.6,1.1
		c2.9-0.8,5.3-2.7,6.8-5.4s1.8-5.7,0.9-8.6c-5.5-19.9-13.4-36.2-22.9-49C302.6,364.1,324.9,350.8,348.9,350.8L348.9,350.8z
		 M218.2,396.4c-9.5,0-18.9,3.9-27.6,9.5c-11.6,7.5-22.3,18.8-28.7,33.1c-6.4,14.3-8.3,32-1.7,49.7s21.4,35.1,46.1,50.9h0
		c2.5,1.7,5.6,2.2,8.5,1.6c2.9-0.6,5.5-2.4,7.1-4.9c1.6-2.5,2.2-5.6,1.5-8.5s-2.5-5.5-5-7c-21.8-14-32.6-27.8-37.2-39.9
		c-4.5-12.1-3.3-22.9,1.1-32.7c4.4-9.8,12.3-18.3,20.4-23.5c8.1-5.2,16-6.2,18.5-5.5l0,0c2.9,0.9,6,0.6,8.6-0.8
		c2.7-1.4,4.6-3.8,5.5-6.7c0.9-2.9,0.5-6-0.9-8.6c-1.4-2.6-3.9-4.6-6.8-5.4C224.5,396.8,221.4,396.4,218.2,396.4L218.2,396.4z"/>
	<path class="st0" d="M290.6,103.5c-3.7-0.2-7.2,1.5-9.5,4.4c-25.7,32.8-36.5,53.9-37.8,72c-0.6,9,1.7,17.2,5.5,23.5
		c3.8,6.3,8.7,10.8,13.1,14.8c8.9,8,15.7,13.6,18.1,23.5c2.4,10,0.8,27.2-15.1,58.1l0,0c-1.4,2.6-1.7,5.7-0.8,8.6
		c0.9,2.8,2.9,5.2,5.6,6.6c2.7,1.4,5.8,1.6,8.6,0.7c2.8-0.9,5.2-3,6.5-5.6c17.1-33.3,21.2-56,16.9-73.6
		c-4.3-17.6-16.6-27.5-24.8-34.9c-4.1-3.7-7.2-6.9-9-9.8c-1.8-2.9-2.7-5.5-2.3-10.3c0.7-9.5,8.6-28.3,33.1-59.8h0
		c2.6-3.3,3.2-7.8,1.5-11.6C298.6,106.2,294.8,103.7,290.6,103.5L290.6,103.5z"/>
	<path class="st0" d="M374.6,103.5c-3.7-0.2-7.2,1.5-9.5,4.4c-25.7,32.8-36.5,53.9-37.8,72c-0.6,9,1.7,17.2,5.5,23.5
		c3.8,6.3,8.7,10.8,13.1,14.8c8.9,8,15.7,13.6,18.1,23.5c2.4,10,0.7,27.2-15.1,58.1c-1.4,2.6-1.7,5.7-0.8,8.6
		c0.9,2.9,2.9,5.2,5.6,6.6c2.7,1.4,5.8,1.6,8.6,0.7s5.2-3,6.5-5.6c17.1-33.3,21.2-56,17-73.6c-4.3-17.6-16.6-27.5-24.8-34.9
		c-4.1-3.7-7.2-6.9-9-9.8c-1.8-2.9-2.7-5.5-2.3-10.3c0.7-9.5,8.6-28.3,33.1-59.8h0c2.6-3.3,3.2-7.8,1.5-11.6
		C382.6,106.2,378.8,103.7,374.6,103.5L374.6,103.5z"/>
	<path class="st0" d="M467.5,103.5c-3.7-0.2-7.2,1.5-9.5,4.4c-25.7,32.8-36.5,53.9-37.8,72c-0.6,9,1.7,17.2,5.5,23.5
		c3.8,6.3,8.7,10.8,13.1,14.8c8.9,8,15.7,13.6,18.1,23.5c2.4,10,0.7,27.2-15.1,58.1c-1.4,2.6-1.7,5.7-0.8,8.6
		c0.9,2.9,2.9,5.2,5.6,6.6c2.7,1.4,5.8,1.6,8.6,0.7c2.8-0.9,5.2-3,6.5-5.6c17.1-33.3,21.2-56,17-73.6s-16.6-27.5-24.8-34.9
		c-4.1-3.7-7.2-6.9-9-9.8c-1.8-2.9-2.7-5.5-2.3-10.3c0.7-9.5,8.6-28.3,33.1-59.8c2.6-3.3,3.2-7.8,1.5-11.6
		C475.5,106.2,471.7,103.7,467.5,103.5L467.5,103.5z"/>
</g>
</svg>
