<?xml version="1.0" encoding="utf-8"?>
<!-- Generator: Adobe Illustrator 26.1.0, SVG Export Plug-In . SVG Version: 6.00 Build 0)  -->
<svg version="1.1" id="Layer_1" xmlns="http://www.w3.org/2000/svg" xmlns:xlink="http://www.w3.org/1999/xlink" x="0px" y="0px"
	 viewBox="0 0 700 700" style="enable-background:new 0 0 700 700;" xml:space="preserve">
<g>
	<path d="M583,381.6c-18-70.7-74-104-108.5-118.2c-6.6-21.4-24.9-37.5-47.3-41.3c1.3-10.1,5.4-26,17.7-28.7c5-1.1,8.2-6.1,7.2-11.1
		s-6.1-8.2-11.1-7.2c-24.8,5.3-31.1,32.5-32.6,46.8c-28.9,4.3-51.2,29.2-51.2,59.3c0,1.3,0.1,2.5,0.2,3.8l-234.8,90.2
		c-0.1,0-0.1,0.1-0.1,0.1c-0.7,0.3-1.3,0.7-1.9,1.2c-0.4,0.3-0.8,0.5-1.1,0.7c-0.4,0.4-0.7,0.9-1,1.4s-0.7,0.9-1,1.5
		c-0.2,0.4-0.2,0.9-0.3,1.3c-0.3,0.8-0.6,1.6-0.6,2.3v0.2v131.7c0,5.1,4.2,9.3,9.3,9.3h448c5.1,0,9.3-4.2,9.3-9.3V384
		c0-0.4-0.2-0.7-0.2-1.1C583.1,382.4,583.1,382,583,381.6L583,381.6z M564.7,414c-9.7,0.8-16,2.8-21.6,4.6c-6.8,2.1-12.6,4-25.2,4
		c-12.6,0-18.4-1.9-25.2-4c-7.2-2.3-15.4-4.9-30.9-4.9c-15.5,0-23.6,2.6-30.9,4.9c-6.8,2.1-12.6,4-25.2,4c-12.5,0-18.4-1.9-25.1-4
		c-7.2-2.3-15.4-4.9-30.8-4.9c-15.5,0-23.6,2.6-30.8,4.9c-6.8,2.1-12.6,4-25.2,4c-12.5,0-18.4-1.9-25.1-4
		c-7.2-2.3-15.4-4.9-30.8-4.9c-15.5,0-23.6,2.6-30.8,4.9c-6.8,2.1-12.6,4-25.1,4c-12.5,0-18.4-1.9-25.1-4
		c-5.6-1.8-11.8-3.7-21.5-4.6v-20.7h429.3L564.7,414L564.7,414z M135.3,432.8c6.6,0.7,11,2.1,15.8,3.5c7.2,2.3,15.4,4.9,30.8,4.9
		c15.4,0,23.6-2.6,30.8-4.9c6.8-2.1,12.6-4,25.1-4c12.5,0,18.4,1.9,25.1,4c7.2,2.3,15.4,4.9,30.8,4.9c15.5,0,23.6-2.6,30.8-4.9
		c6.8-2.1,12.6-4,25.1-4c12.5,0,18.4,1.9,25.1,4c7.2,2.3,15.4,4.9,30.8,4.9c15.5,0,23.6-2.6,30.9-4.9c6.8-2.1,12.6-4,25.2-4
		c12.6,0,18.4,1.9,25.2,4c7.2,2.3,15.4,4.9,30.9,4.9c15.5,0,23.6-2.6,30.9-4.9c4.9-1.6,9.2-2.9,15.9-3.6v25.9
		c-9.7,0.8-16,2.8-21.6,4.6c-6.8,2.1-12.6,4-25.2,4c-12.6,0-18.4-1.9-25.2-4c-7.2-2.3-15.4-4.9-30.9-4.9c-15.5,0-23.6,2.6-30.9,4.9
		c-6.8,2.1-12.6,4-25.2,4c-12.5,0-18.4-1.9-25.1-4c-7.2-2.3-15.4-4.9-30.8-4.9c-15.5,0-23.6,2.6-30.8,4.9c-6.8,2.1-12.6,4-25.2,4
		c-12.5,0-18.4-1.9-25.1-4c-7.2-2.3-15.4-4.9-30.8-4.9c-15.5,0-23.6,2.6-30.8,4.9c-6.8,2.1-12.6,4-25.1,4c-12.5,0-18.4-1.9-25.1-4
		c-5.6-1.8-11.8-3.7-21.5-4.6L135.3,432.8L135.3,432.8z M417.3,240c22.8,0,41.3,18.6,41.3,41.3c0,22.8-18.6,41.3-41.3,41.3
		c-22.8,0-41.3-18.6-41.3-41.3C375.9,258.5,394.4,240,417.3,240z M417.3,341.3c31.8,0,57.9-24.9,59.8-56.3
		c28.7,13.6,67.5,40.3,84.4,89.6H176.4l185.2-71.1C370.4,325.7,392,341.3,417.3,341.3L417.3,341.3z M135.3,506.3v-28.8
		c6.6,0.7,11,2.1,15.8,3.5c7.2,2.3,15.4,4.9,30.8,4.9c15.4,0,23.6-2.6,30.8-4.9c6.8-2.1,12.6-4,25.1-4c12.5,0,18.4,1.9,25.1,4
		c7.2,2.3,15.4,4.9,30.8,4.9c15.5,0,23.6-2.6,30.8-4.9c6.8-2.1,12.6-4,25.1-4c12.5,0,18.4,1.9,25.1,4c7.2,2.3,15.4,4.9,30.8,4.9
		c15.5,0,23.6-2.6,30.9-4.9c6.8-2.1,12.6-4,25.2-4c12.6,0,18.4,1.9,25.2,4c7.2,2.3,15.4,4.9,30.9,4.9c15.5,0,23.6-2.6,30.9-4.9
		c4.9-1.6,9.2-2.9,15.9-3.6v28.8L135.3,506.3L135.3,506.3z"/>
</g>
</svg>
