<?xml version="1.0" encoding="utf-8"?>
<!-- Generator: Adobe Illustrator 26.1.0, SVG Export Plug-In . SVG Version: 6.00 Build 0)  -->
<svg version="1.1" id="Layer_1" xmlns="http://www.w3.org/2000/svg" xmlns:xlink="http://www.w3.org/1999/xlink" x="0px" y="0px"
	 viewBox="0 0 700 700" style="enable-background:new 0 0 700 700;" xml:space="preserve">
<g>
	<path d="M544.9,311.1c-6.8-0.4-13.3,2.8-18.2,9.2c-7.1,9.1-10.3,23.2-7.5,32.2c3.1,9.6,16.4,14.2,28.2,14.6c0.5,0,1,0,1.4,0
		c13.5,0,23.7-5.7,27.5-15.4c4.3-11.1,1.3-19.5-2-24.6C567.7,317,554.8,311.8,544.9,311.1L544.9,311.1z M559.9,345.5
		c-0.9,2.4-4.4,3.3-6.4,3.7c-7.5,1.5-15.6-1-17.8-2.7c-0.4-3.1,1-10.6,4.7-15.4c1-1.2,2.4-2.6,3.4-2.5c5.3,0.3,12.6,3.2,15.7,8
		C560.6,338.2,561.7,340.9,559.9,345.5L559.9,345.5z"/>
	<path d="M625.7,358.8c-19.3-46-44.6-78-77.1-97.7c-0.5-0.3-1.1-0.6-1.6-1c-2.6-17.8-11.3-67.6-28.6-80.9
		c-14.8-11.4-60.8-5.3-79.9-2.2c-39.6,6.5-76.4,18.4-98.5,31.6c-45.8,27.5-56.2,33.8-77.3,72.5c-19.1,7.4-35.9,14.4-48.5,19.6
		l-6.1,2.5c-1.2,0.5-2.4,1-3.6,1.6c-29.4-46-58.7-77.1-87.2-92.5c-23.3-12.6-37.8-9.7-39.4-9.4c-2.7,0.6-5,2.5-6.1,5.1
		s-0.9,5.5,0.5,7.9c0.1,0.2,14.2,24,27.7,49.9c24.3,46.2,25.4,57.6,25.4,59.5c-6,15.2-5.5,27.5-5.1,39.3c0.9,23,1.9,46.8-47.1,103.1
		c-2.3,2.6-2.8,6.4-1.3,9.6c1.5,3,4.6,4.9,7.9,4.9c0.1,0,0.3,0,0.4,0c2.4-0.1,59.3-3.5,125.6-67.9c1.4-1.3,2.2-3,2.5-4.8
		c15.7,9.3,41.7,20.9,80,33.1c26.6,8.4,50,14.2,70.4,18.1c-0.1,11.5-5,23.5-9.4,32.2c-6,11.7-12.8,20.1-12.8,20.1
		c-2.2,2.7-2.6,6.4-1,9.5c1.5,2.9,4.5,4.8,7.8,4.8c0.2,0,0.3,0,0.5,0c57.4-3.2,84.2-39.3,97-56.7c0.6-0.8,1.2-1.6,1.7-2.3
		c21.8-0.9,45.6-4.4,68.7-10.1c0.7-0.1,1.4-0.2,2-0.5c47.1-11.8,90.9-32.7,108.1-59.4C629.6,385.4,631.2,371.7,625.7,358.8
		L625.7,358.8z M349,223.7c20.3-12.2,54.8-23.2,92.3-29.4c42.3-7,63-3.8,66.4-1.2c1.9,1.5,8.8,8.7,16.2,39.6
		c1.5,6.3,2.7,12.4,3.7,17.7c-16.8-7-40.3-13.3-75.8-15.9c-42.5-3.2-108,16.7-162.9,36.8C301.7,252.1,313.9,244.7,349,223.7
		L349,223.7z M193.6,401.9c-36.5,35.4-69.9,51-91,57.8c37.1-48.3,36.1-73.3,35.2-95.6c-0.4-11.1-0.8-20.6,4-32.6
		c2.6-6.4,2.9-17.6-25-71.3c-7.4-14.1-15-27.9-20.7-37.8c17.9,5.8,51,25.6,93.3,91.6c-8.4,6.7-13.9,14.9-16.3,24.4
		c-6.3,24.8,10.8,49.2,18.4,58.5c0.9,1.1,2.2,2.4,3.8,3.7C194.7,401,194.1,401.4,193.6,401.9L193.6,401.9z M205.1,385.8
		c-4.6-5.7-19.4-25.6-15-43.2c2.4-9.6,10.7-17.4,24.7-23.2l6.1-2.5c48.1-19.9,157.9-65.3,221.1-65.3c2.9,0,5.8,0.1,8.5,0.3
		c15.5,1.2,32.4,3.1,49.4,7.6c-8.8,14.8-26.7,61.4-21.2,97c1.1,7,2,13.5,2.8,19.2c3.6,25.5,6,42,16.5,67.7
		c-20.2,4.4-40.9,7.1-60.1,7.6c-38.2,1.1-90.8-8.1-144.2-25C246.5,411,211.6,393.8,205.1,385.8L205.1,385.8z M361.4,507.4
		c6.6-11.4,13.8-27.3,14.8-43.5c17.9,2.8,32.7,4.1,44.4,4.5C409.4,482.5,391.6,500.6,361.4,507.4L361.4,507.4z M606.6,388.9
		c-9.8,15.1-33.8,30.5-66,42.3c-8.2,3-16.7,5.7-25.4,8.1c-10.5-25.1-12.7-40.2-16.4-66c-0.8-5.8-1.8-12.3-2.9-19.4
		c-5-32.3,14.2-78.5,19.2-85.9c1-0.7,1.8-1.6,2.4-2.6c7.4,2.9,14.8,6.4,22,10.8c29.3,17.7,52.2,47,70.1,89.5
		C612.8,373.1,611.8,380.8,606.6,388.9L606.6,388.9z"/>
	<path d="M421.5,338.3c-4.2-2.7-41.4-25.7-58.8-4.7c-12.8,15.5-33.9,32.2-39.5,34.8c-3.5,1.6-5.6,5.3-5.1,9.1s3.4,6.9,7.2,7.5
		c0.8,0.1,7.7,1.2,17.7,1.2c21.5,0,57.6-5,80.8-35.2c1.5-1.9,2.1-4.4,1.7-6.8C425,341.7,423.6,339.6,421.5,338.3L421.5,338.3z
		 M352.8,368.1c8.3-7.1,16.9-15.6,23.4-23.4c1.4-1.7,3.8-2.4,6.8-2.4c5.6,0,13.3,2.6,19.9,5.7C387.8,362.1,368.2,366.8,352.8,368.1
		L352.8,368.1z"/>
</g>
</svg>
