<?xml version="1.0" encoding="utf-8"?>
<!-- Generator: Adobe Illustrator 26.1.0, SVG Export Plug-In . SVG Version: 6.00 Build 0)  -->
<svg version="1.1" id="Layer_1" xmlns="http://www.w3.org/2000/svg" xmlns:xlink="http://www.w3.org/1999/xlink" x="0px" y="0px"
	 viewBox="0 0 676.4 788.5" style="enable-background:new 0 0 676.4 788.5;" xml:space="preserve">
<style type="text/css">
	.st0{fill:#FFFFFF;}
	.st1{fill:#ACABC9;}
	.st2{clip-path:url(#SVGID_00000046333489442531946250000007860056803703439807_);}
	.st3{fill:#00BD26;stroke:#000000;stroke-width:14;stroke-miterlimit:10;}
	.st4{stroke:#000000;stroke-miterlimit:10;}
	.st5{fill:#C68854;stroke:#000000;stroke-miterlimit:10;}
	.st6{fill:#C7FDFF;stroke:#000000;stroke-miterlimit:10;}
	.st7{fill:#E8D5BD;stroke:#000000;stroke-miterlimit:10;}
	.st8{fill:#52BFC1;stroke:#000000;stroke-miterlimit:10;}
	.st9{fill:#F23F6D;stroke:#000000;stroke-miterlimit:10;}
	.st10{fill:#FFCFA0;stroke:#000000;stroke-miterlimit:10;}
	.st11{fill:#BC0C38;}
	.st12{fill:#009C04;}
	.st13{fill:none;stroke:#000000;stroke-width:14;stroke-miterlimit:10;}
	.st14{opacity:0.82;fill:#2EB6FF;stroke:#000000;stroke-width:6;stroke-miterlimit:10;enable-background:new    ;}
	.st15{font-family:'ChalkboardSE-Bold';}
	.st16{font-size:19.84px;}
	.st17{fill:#52BFC1;stroke:#000000;stroke-width:4;}
	.st18{fill:#00BD26;stroke:#000000;stroke-width:4;}
	.st19{fill:#F23F6D;stroke:#000000;stroke-width:3;}
	.st20{fill:none;stroke:#000000;stroke-width:8;stroke-miterlimit:10;}
	.st21{fill:#0F91C2;stroke:#000000;stroke-width:7;stroke-miterlimit:10;}
	.st22{fill:#1182A4;}
	.st23{fill:#15AAD7;stroke:#000000;stroke-width:7;stroke-miterlimit:10;}
	.st24{font-family:'Chalkboard-Bold';}
	.st25{font-size:44.66px;}
	.st26{fill:none;stroke:#000000;stroke-miterlimit:10;}
	.st27{letter-spacing:-2;}
	.st28{letter-spacing:-3;}
	.st29{fill:none;}
	.st30{fill:none;stroke:#000000;stroke-linecap:round;stroke-miterlimit:10;}
</style>
<rect x="-153.4" y="-32" class="st0" width="984.8" height="891"/>
<circle class="st1" cx="338.5" cy="330.8" r="209.7"/>
<g>
	<defs>
		<circle id="SVGID_1_" cx="338.5" cy="330.8" r="209.7"/>
	</defs>
	<clipPath id="SVGID_00000169549008238834782820000010350374665730965684_">
		<use xlink:href="#SVGID_1_"  style="overflow:visible;"/>
	</clipPath>
	<g style="clip-path:url(#SVGID_00000169549008238834782820000010350374665730965684_);">
		<circle class="st3" cx="313.9" cy="294" r="50.2"/>
		<circle class="st3" cx="355.3" cy="316.2" r="50.2"/>
		<circle class="st3" cx="263.7" cy="320.2" r="50.2"/>
		<path class="st4" d="M175.9,407.6c4.1,35,6.4,65,10.5,97.3c3.2,26.8,2.7,58.2,12.3,83.7s31.8,27.3,56,27.8
			c35,0.9,70.5,0.5,106,0.5h50c13.2,0,26.4-0.9,36.8-10c11.4-9.5,20-25.5,23.2-40c5.9-25.9,8.2-53.2,12.3-79.6
			c4.1-25.5,8.2-51,12.3-76c1.4-7.7-5.5-12.7-12.7-9.5c-4.5,1.8-9.3,3.2-14.1,4.1c13.3-37.9,23.2-76.9,29.6-116.5
			c4.1-26.4,11.4-74.1-29.1-75.1c-37.3-0.9-58.7,44.6-72.3,72.3c-5.5,10.9-10.5,22.3-15,33.2c-7.3-5.9-16.4-10.5-20-16.8
			c1.6-1.2,3.3-2.2,5-3.2c2.7-1.8,5-5.9,3.6-9.1c-3.6-10.9-7.7-21.4-11.4-32.3c-1.4-4.5-5-5.9-9.5-5.5
			c-26.4,4.1-50.5,14.6-74.6,25.5c-3.2,1.4-4.5,5.9-3.6,9.1c2.7,10.9,6.4,21.4,9.5,32.3c1.4,4.5,5.9,6.8,10.5,5.9
			c1.4-0.5,3.2-0.9,5-1.4c0.9,4.5,0.5,8.2-1.8,13.6c-2.6,6.2-4.6,12.6-5.9,19.1c-6.8-11.4-18.2-20-33.7-23.7
			c-10.5-2.4-21.4-2.2-31.8,0.5c-5.9-6.4-12.7-11.8-20.5-14.6c-8.2-2.7-15.5,9.1-8.6,14.6c3.6,2.7,7.3,5,10.9,7.7l-5.5,4.1
			c-14.6,12.3-23.2,34.1-15,52.3C182.8,399,175,401.7,175.9,407.6L175.9,407.6z"/>
		<path class="st5" d="M401.1,315.7c6.4-14.5,13.5-28.6,21.4-42.3c8.6-15,19.1-34.1,36.4-40c32.8-11.4,26.4,33.7,20.5,61.4
			c-17.7-3.6-37.8-2.7-52.3,9.1c-5.5,4.5,0.5,11.8,6.4,10.9c15-2.3,27.3-6.4,42.3-3.2v0.9c-1.4,6.8-3.2,13.6-4.5,20.5
			c-18.2-2.7-37.8-1.8-53.7,8.2c-5.5,3.6-2.3,12.2,4.5,10.4c15.5-4.1,30-5.5,45.5-3.6c-2.3,7.7-4.5,15.5-7.3,23.2
			c-18.2-5-42.3-5-55.5,7.3c-3.2,3.2-0.5,7.7,3.2,8.2c9.1,0.5,18.2-1.8,27.3-1.8c6.4,0,12.7,1.4,19.1,2.7c-2.3,6.4-5,12.7-7.3,19.1
			c-15-1.8-30-5.9-44.1-8.2c-10.3-1.4-20.6-1.4-30.9,0C380.2,370.3,389.3,342.5,401.1,315.7L401.1,315.7z"/>
		<path class="st6" d="M363.8,325.3c4.5,2.7,8.2,6.4,11.8,9.5c-1.8,5-3.6,10-5.5,14.6c-5,5.5-8.6,10-17.3,10.5s-16.8-2.3-25.5-1.8
			c-8.2,0.8-16.1,3.8-22.8,8.6c1-7.9,3-15.7,5.9-23.2c2.7-6.4,5-12.7,3.6-19.6c-0.5-3.2-2.3-5.5-2.7-8.6c-0.1-0.8-0.3-1.5-0.5-2.3
			c1.9-0.4,3.7-1,5.5-1.8c4.1-1.4,24.1-10.5,26.8-8.6c2.3,1.4,3.2,10,5.5,12.7C352.9,320.3,359.2,322.6,363.8,325.3L363.8,325.3z"/>
		<path class="st7" d="M361.5,375.8c-2.3,8.2-4.5,16.8-6.8,25.5c-8.2,1.8-16.4,4.1-25,6.4c-6.4,1.9-12.9,3.1-19.6,3.6
			c-2.3-7.3-3.9-14.7-5-22.3c6.8-8.2,14.1-14.6,25.9-14.6c8.2,0,16.4,2.7,24.6,2.3C357.6,376.6,359.6,376.3,361.5,375.8L361.5,375.8
			z"/>
		<path class="st8" d="M292.8,307.1c-1.8-5.5-4.1-10.9-5.5-16.8c18.7-9.1,37.3-16.8,57.8-20.5c1.8,5.9,4.1,11.8,5.9,17.7
			C351,287.5,295.5,298.4,292.8,307.1z"/>
		<path class="st9" d="M215.5,359c0.5-0.5,0.9-0.5,1.4-0.9c1.4,2.7,2.7,5.5,4.1,8.6c3.2,6.4,14.6,3.6,13.7-3.6
			c-0.3-3.6-1.1-7.1-2.3-10.5c7.4-1.4,15.1-0.9,22.3,1.4c23.7,7.3,30,33.7,23.7,55c-10.9-2.7-21.4-6.8-31.8-10
			c-15-4.1-30.9-7.7-45.9-5.5C200.9,379.4,202.3,367.6,215.5,359L215.5,359z"/>
		<path class="st10" d="M191.8,415.4c23.2-12.3,54.1,2.7,77.3,9.6c26.4,7.3,49.1,4.5,75.1-2.7c13.2-3.6,26.4-7.7,40-7.7
			c13.2,0,25.9,2.7,39.1,5.5c18.2,3.6,35.5,5.9,52.8,1.8c-6.4,41.4-21.4,136.9-22.8,142.8c-2,7.3-5.3,14.2-9.5,20.5
			c-10.9,15-28.2,12.3-44.6,11.8c-30.5-0.9-61.4-0.9-91.9-0.5h-44.5c-11.8,0-35.5,5-43.7-5.9s-8.2-28.7-9.5-41.4
			c-2.3-16.4-4.1-32.3-6.4-48.7c-3.6-28.2-7.3-56.4-11.8-84.2C191.4,415.4,191.4,415.4,191.8,415.4L191.8,415.4z"/>
		<path class="st11" d="M220.9,387.6c2.9-0.2,5.3-2.5,5.5-5.5c0.1-2.9-2.1-5.3-5-5.5c-0.1,0-0.3,0-0.4,0c-2.9,0.2-5.3,2.5-5.5,5.5
			C215.5,385.1,217.9,387.6,220.9,387.6z"/>
		<path class="st11" d="M248.2,376.2c2.9-0.2,5.3-2.5,5.5-5.5c0.1-2.9-2.1-5.3-5.1-5.5c-0.1,0-0.3,0-0.4,0c-2.9,0.2-5.3,2.5-5.5,5.5
			c-0.1,2.9,2.1,5.3,5,5.5C247.9,376.2,248.1,376.2,248.2,376.2z"/>
		<path class="st11" d="M264.1,393.1c2.9-0.2,5.3-2.5,5.5-5.5c0.1-2.9-2.1-5.3-5.1-5.5c-0.1,0-0.3,0-0.4,0c-2.9,0.2-5.3,2.5-5.5,5.5
			C258.7,390.6,261.2,393,264.1,393.1z"/>
		<path class="st0" d="M308.7,389.4L308.7,389.4c0.9-0.2,1.8,0.3,2,1.2l4.2,15.3c0.2,0.9-0.3,1.8-1.1,2h0c-0.9,0.2-1.8-0.3-2-1.2
			l-4.2-15.3C307.3,390.6,307.9,389.7,308.7,389.4z"/>
		<path class="st0" d="M339,313.5L339,313.5c0.3,0.9-0.1,1.8-1,2.1l-14.9,5.4c-0.9,0.3-1.8-0.1-2.1-1l0,0c-0.3-0.9,0.1-1.8,1-2.1
			l14.9-5.4C337.7,312.2,338.6,312.7,339,313.5z"/>
		<path class="st4" d="M218.8,572v-2.9c0-0.4,0.3-0.7,0.7-0.7h89.1c0.4,0,0.7,0.3,0.7,0.7v2.9c0,0.4-0.3,0.7-0.7,0.7h-89.1
			C219.2,572.7,218.8,572.4,218.8,572z"/>
		<path class="st4" d="M218.8,560.9V558c0-0.4,0.3-0.7,0.7-0.7h107.1c0.4,0,0.7,0.3,0.7,0.7v2.9c0,0.4-0.3,0.7-0.7,0.7H219.6
			C219.2,561.7,218.8,561.4,218.8,560.9z"/>
		<path class="st4" d="M218.8,549.9V547c0-0.4,0.3-0.7,0.7-0.7h61.1c0.4,0,0.7,0.3,0.7,0.7v2.9c0,0.4-0.3,0.7-0.7,0.7h-61.1
			C219.2,550.6,218.8,550.3,218.8,549.9z"/>
		<path class="st4" d="M301.7,549.9V547c0-0.4,0.3-0.7,0.7-0.7h24.3c0.4,0,0.7,0.3,0.7,0.7v2.9c0,0.4-0.3,0.7-0.7,0.7h-24.3
			C302,550.6,301.7,550.3,301.7,549.9z"/>
		<path class="st4" d="M218.8,582.4V580c0-0.3,0.3-0.6,0.6-0.6h73.1c0.3,0,0.6,0.3,0.6,0.6v2.4c0,0.3-0.3,0.6-0.6,0.6h-73.1
			C219.1,583,218.8,582.7,218.8,582.4z"/>
		<rect x="229.2" y="308.5" class="st12" width="7.2" height="7.2"/>
		<rect x="248.5" y="289.3" class="st12" width="7.2" height="7.2"/>
		<rect x="264.1" y="324.1" class="st12" width="7.2" height="7.2"/>
		<rect x="372" y="302.3" class="st12" width="7.2" height="7.2"/>
		<rect x="294.4" y="257.1" class="st12" width="7.2" height="7.2"/>
	</g>
</g>
<circle class="st13" cx="338.5" cy="330.8" r="209.7"/>
<circle class="st14" cx="418.5" cy="467.4" r="33.4"/>
<text transform="matrix(1 0 0 1 400.1476 461.1098)" class="st0 st15 st16">DBQ</text>
<text transform="matrix(1 0 0 1 397.1677 484.9198)" class="st0 st15 st16">M</text>
<text transform="matrix(1 0 0 1 414.0276 484.9198)" class="st0 st15 st16">a</text>
<text transform="matrix(1 0 0 1 424.8176 484.9198)" class="st0 st15 st16">r</text>
<text transform="matrix(1 0 0 1 433.9576 484.9198)" class="st0 st15 st16">t</text>
<path d="M223.3,475.6V474c0-0.4,0.3-0.7,0.7-0.7h62.3c0.4,0,0.7,0.3,0.7,0.7v1.6c0,0.4-0.3,0.7-0.7,0.7H224
	C223.6,476.3,223.3,476,223.3,475.6z"/>
<path d="M223.3,467.8v-1.6c0-0.4,0.3-0.7,0.7-0.7H299c0.4,0,0.7,0.3,0.7,0.7v1.6c0,0.4-0.3,0.7-0.7,0.7H224
	C223.6,468.5,223.3,468.2,223.3,467.8z"/>
<path d="M223.3,460v-1.6c0-0.4,0.3-0.7,0.7-0.7h42.6c0.4,0,0.7,0.3,0.7,0.7v1.6c0,0.4-0.3,0.7-0.7,0.7H224
	C223.6,460.8,223.3,460.4,223.3,460z"/>
<path d="M281.6,460v-1.6c0-0.4,0.3-0.7,0.7-0.7H299c0.4,0,0.7,0.3,0.7,0.7v1.6c0,0.4-0.3,0.7-0.7,0.7h-16.7
	C281.9,460.8,281.6,460.4,281.6,460z"/>
<path d="M223.3,483v-1.3c0-0.3,0.3-0.6,0.6-0.6H275c0.3,0,0.6,0.3,0.6,0.6v1.3c0,0.3-0.3,0.6-0.6,0.6h-51.1
	C223.6,483.6,223.3,483.3,223.3,483z"/>
<circle class="st13" cx="338.5" cy="330.8" r="310.5"/>
<path class="st17" d="M131.4,217.9c-1.1,1.6-2.5,2.9-4.1,3.8c-1.3,0.9-2.9,1-4.2,0.3l-28.8-14.8c-0.6,1.5-1.4,3-2.5,4.2
	c-0.8,1.1-1.9,2-3,2.8c-0.8,0.6-1.8,0.7-2.7,0.5c-0.8-0.2-1.3-1-1.5-2.4c-0.2-1.7-0.2-3.3,0-5c0.2-1.9,0.6-3.7,1.2-5.6
	c0.5-1.9,1.2-3.8,1.9-5.8s1.5-3.8,2.3-5.6c2.2-4.9,4.8-9.5,7.9-13.9c2.8-4.1,6.1-7.9,9.7-11.2c3.3-3,6.9-5.5,10.9-7.4
	c3.4-1.7,7.2-2.6,11-2.6c2,0,4,0.4,5.9,1.2c1.7,0.7,3.4,1.7,4.8,2.8c1.9,1.5,3.4,3.5,4.4,5.6c1.1,2.3,1.8,4.9,2.1,7.4
	c0.3,2.9,0.2,5.8-0.2,8.7c-0.4,3.2-1.2,6.4-2.2,9.4c-1,3-2.2,5.8-3.6,8.6c-1.4,2.9-2.8,5.8-4.2,8.6c-0.7,1.4-1.4,2.9-2.1,4.6
	c-0.8,1.6-1.5,3.2-2.3,4.6L131.4,217.9z M103.2,185.2c-0.6,1-1.2,2-1.7,2.9s-1,2-1.5,3l26.5,15.8c0.2-0.4,0.4-0.7,0.6-1.1
	c0.1-0.3,0.3-0.6,0.4-0.9c0.2-0.2,0.3-0.5,0.4-0.8c0.5-1,0.9-1.9,1.3-2.5c0.3-0.6,0.6-1.3,0.9-1.9s0.6-1.2,0.8-1.8s0.6-1.4,1-2.2
	c1.7-3.5,2.8-7.3,3.2-11.2c0.2-3.2-0.4-6.3-1.8-9.1c-0.7-1.6-1.9-3.1-3.3-4.1c-1.5-1-3.2-1.6-4.9-1.8c-2.1-0.2-4.1,0.1-6.1,0.9
	c-2.5,0.9-4.7,2.3-6.7,4c-1.8,1.5-3.4,3.2-4.9,5.1C106,181.2,104.5,183.2,103.2,185.2L103.2,185.2z"/>
<path class="st17" d="M197.2,134.2c1.2,0.6,1.9,1.9,1.9,3.2c-0.1,1.3-0.6,2.6-1.5,3.5c-1,1.2-2.3,2.1-3.8,2.7
	c-1.6,0.7-3.3,0.9-5,0.7c-0.8,2-1.9,3.8-3.2,5.5c-1.4,1.7-2.9,3.4-4.5,4.9c-2.4,2.3-5.1,4.4-7.9,6.2c-2.3,1.5-4.9,2.5-7.5,3.1
	c-2.3,0.5-4.7,0.4-6.9-0.2c-2.4-0.8-4.4-2.2-6-4.1c-0.7-0.9-1.3-1.9-1.8-2.9c-0.5-1.1-0.9-2.2-1.3-3.3c-0.4-1.5-0.7-3-0.7-4.5
	c-0.1-1.6,0-3.3,0.2-4.9c1-6.2,3.5-12,7.2-17c1-1.3,2-2.5,3.2-3.7c1.4-1.5,2.9-2.9,4.5-4.1c1.5-1.2,3.2-2.3,4.9-3.3
	c1.3-0.8,2.8-1.2,4.3-1.3c0.8,0,1.5,0.1,2.3,0.3c0.5,0.2,1,0.5,1.3,0.9c0.4,0.4,0.7,0.9,1,1.3c0.3,0.5,0.7,1.1,1.3,1.8
	c0.9,1.1,1.7,2.3,2.5,3.4s1.7,2.2,2.5,3.3c0.3,0.4,0.6,0.9,1.1,1.4s1,1.2,1.5,1.8s1.1,1.2,1.6,1.7c0.4,0.5,0.9,0.8,1.5,1.1
	C192.8,132.7,194.3,133.2,197.2,134.2z M176.4,146.2c0.4-0.7,0.8-1.7,1.4-2.8c0.5-1,0.9-2,1.2-3c-2.2-1.6-4.3-3.5-6.2-5.5
	c-1.8-2-3.6-4.1-5.2-6.4c-2.4,2.5-4.3,5.5-5.5,8.8c-1,2.6-1.2,5.5-0.6,8.2c0.2,1,0.6,1.9,1,2.8c0.4,0.8,0.9,1.6,1.6,2.2
	c0.8,0.8,1.9,1.2,3.1,1.2c1.2,0,2.4-0.3,3.5-0.8c1.2-0.5,2.3-1.2,3.2-2C174.9,148.2,175.7,147.3,176.4,146.2L176.4,146.2z"/>
<path class="st17" d="M180.2,94.1c-0.8-1.7-0.6-3.8,0.5-5.3c1.1-1.8,2.6-3.2,4.4-4.3c1.7-1.1,3.7-1.7,5.7-1.8c1.7-0.2,3.4,0.6,4.4,2
	c1,1.4,1,3.2,0.1,4.6c-2.1,3.5-5.6,5.9-9.6,6.6c-1.8,0.4-3.7-0.1-5-1.4L180.2,94.1z M216.7,123.1c0.4,1,0.4,2.1,0.1,3.1
	c-0.3,1.1-0.9,2.1-1.7,3c-0.8,0.9-1.8,1.6-2.9,2.1c-1.2,0.5-2.5,0.6-3.8,0.4c-0.7-0.1-1.4-0.4-2-0.8c-0.6-0.4-1.1-0.9-1.5-1.4
	c-0.4-0.5-0.8-1.1-1.2-1.7c-0.4-0.6-0.7-1.1-1-1.6c-1.7-2.5-3.4-5-5-7.5s-3.3-5-5-7.5c-0.7-1-1.5-2-2.4-2.9
	c-0.9-0.9-1.5-2.1-1.8-3.3c-0.2-1.1,0-2.2,0.5-3.2c0.5-1.1,1.3-2.2,2.2-3c1-0.9,2.1-1.6,3.4-2.1c1.2-0.5,2.6-0.6,3.9-0.4
	c1.6,0.3,2.7,0.8,3.2,1.6s1.1,1.9,1.9,3.2l2.6,4.5c0.9,1.5,1.8,3,2.7,4.4c1.3,2.1,2.6,4.2,3.8,6.4l3.7,6.4L216.7,123.1z"/>
<path class="st17" d="M240.8,108.2c0.9,0.1,1.8,0.5,2.6,1c0.7,0.5,1.3,1.1,1.7,1.9c0.3,0.7,0.4,1.6,0.2,2.3c-0.4,1-1,1.9-2,2.6
	c-0.9,0.7-2,1.2-3.1,1.5c-1.2,0.4-2.5,0.6-3.8,0.7c-1.2,0.1-2.5,0.1-3.7-0.1c-1-0.1-2-0.5-2.8-1c-0.3-0.2-0.5-0.4-0.7-0.6
	c-0.2-0.2-0.4-0.5-0.5-0.8l-19.3-38.2c-0.5-1.1-0.3-2.3,0.7-3.7c1-1.4,2.3-2.6,3.8-3.5c0.8-0.5,1.7-0.8,2.6-1c1-0.2,1.9-0.3,2.9-0.3
	c0.8,0,1.7,0.1,2.5,0.4c0.6,0.2,1.1,0.6,1.4,1.1l2.1,4.9c0.9,2,1.9,4.2,3,6.6c1.1,2.4,2.2,4.9,3.3,7.4s2.2,5,3.2,7.4
	s1.9,4.5,2.8,6.5s1.5,3.5,2,4.7L240.8,108.2z"/>
<path class="st17" d="M279.9,65.3c0.7-1.2,1.8-2.2,3.1-2.8c1.3-0.6,2.7-1,4.2-1.1c1.4-0.1,2.7,0.2,4,0.7c1.1,0.4,2,1.3,2.4,2.5
	c0.3,1.2,0.2,2.6-0.2,3.8c-0.4,1.8-1,3.5-1.6,5.3c-0.7,1.8-1.3,3.6-2,5.3s-1.2,3-1.7,4c-1.7,4.3-3.6,8.5-5.6,12.8s-3.9,8.5-5.7,12.8
	c-0.2,0.6-0.5,1.4-0.8,2.4s-0.6,1.9-0.9,2.9s-0.7,1.9-1,2.9c-0.3,0.8-0.7,1.5-1.1,2.1c-0.8,1.1-1.8,2-3,2.5c-1,0.5-2.2,0.7-3.4,0.7
	c-1.1,0-2.1-0.4-3-1c-0.9-0.7-1.5-1.6-1.8-2.7c-0.1-0.7,0-1.4,0.2-2c0.2-0.9,0.5-1.8,0.8-2.7c0.3-0.9,0.7-1.9,1-2.7s0.6-1.6,0.8-2.1
	c0.8-2,1.6-4,2.3-6.1c0.8-2,1.6-4,2.4-6c-5.1-1.3-10.2-3-15-5.2c-4.4-2-8.5-4.6-12-7.9l-1.9-1.6c-0.6-0.5-1-1.2-1.2-2
	c-0.2-0.9-0.1-1.8,0.2-2.6c0.4-0.9,0.9-1.7,1.6-2.4c0.8-0.8,1.8-1.4,2.9-1.8c1.2-0.5,2.5-0.8,3.8-0.8c1,0,2,0.2,2.9,0.6
	c0.8,0.4,1.5,1,2.1,1.6c0.6,0.6,1.2,1.2,1.7,1.9c0.5,0.6,1,1.2,1.6,1.7c4.6,3.9,10.3,6.7,17.1,8.6c1.3-3.5,2.5-7,3.5-10.4
	c1-3.4,1.9-6.9,2.6-10.3L279.9,65.3z"/>
<path class="st18" d="M354.2,95.5c-3-0.4-4.8-1.2-5.4-2.5c-0.6-1.3-0.6-2.8,0.1-4c0.5-10.4,0.9-20.8,1.3-31.2
	c-1.2,0-2.4-0.3-3.4-0.8c-0.9-0.4-1.7-1-2.4-1.7c-0.6-0.6-0.9-1.4-0.9-2.2c0.1-0.9,0.5-1.7,1.2-2.2c1.9-1.6,4.2-2.8,6.6-3.4
	c2.8-0.8,5.6-1.3,8.4-1.7c4.5-0.5,9.1-0.6,13.6-0.2c4.5,0.4,8.9,1.6,13.1,3.6c3.2,1.4,6,3.4,8.4,6c1.7,1.8,2.7,4,3,6.5
	c0.1,2.2-0.7,4.3-2.2,5.9c-1.9,2.1-4.3,3.7-7,4.7c3.3,2.2,5.5,4.5,6.5,6.9c1,2.1,1.2,4.6,0.4,6.8c-0.9,2.3-2.4,4.3-4.5,5.7
	c-2.4,1.8-5.2,3.2-8.1,4c-2.1,0.6-4.3,1-6.5,1.1c-2.4,0.1-4.9,0.1-7.3,0s-5-0.3-7.4-0.5s-4.7-0.5-6.7-0.7L354.2,95.5z M364.5,64.8
	c1.4,0.1,2.8,0.3,4.3,0.4c1.4,0.2,2.8,0.2,4.2,0.2c1.4,0,2.8-0.1,4.1-0.4c1.3-0.2,2.6-0.6,3.8-1.2c1.7-0.8,2.4-1.9,2.2-3.1
	s-1.3-2.4-3-3.4c-2.2-1.2-4.5-2-7-2.3c-2.5-0.3-5-0.4-7.5-0.2L364.5,64.8z M379.6,78.6c-1.2-0.8-2.4-1.5-3.7-2
	c-1.2-0.5-2.5-0.9-3.8-1.1c-1.3-0.3-2.7-0.5-4-0.6l-4.5-0.3c-0.5,4.9-0.7,7.4-1.2,12.2c1.6,0.1,3.3,0.3,5.1,0.4
	c1.8,0.1,3.5,0.1,5.3,0c1.6-0.1,3.3-0.3,4.9-0.7c1.4-0.3,2.8-1,3.9-1.9c0.4-1,0.6-2.1,0.4-3.2C381.6,80.2,380.7,79.2,379.6,78.6
	L379.6,78.6z"/>
<path class="st18" d="M410.3,79.1c0.2-0.6,0.4-1.2,0.4-1.8c-1-0.6-1.8-1.5-2.4-2.5c-0.5-0.8-0.7-1.6-0.6-2.5
	c0.1-0.9,0.6-1.6,1.3-2.1c1-0.7,2.2-1,3.3-1.1c2.1-0.1,4.2,0.3,6,1.3c1.8,0.9,3.5,2.1,4.9,3.5c2.2-0.3,4.5-0.4,6.8-0.3
	c2.3,0.1,4.6,0.4,6.8,1c2.3,0.6,4.4,1.5,6.5,2.6c2.1,1.2,4,2.7,5.7,4.5c0.8,0.9,1.6,1.8,2.2,2.9c0.6,0.9,0.8,1.9,0.7,2.9
	c-0.1,1.2-0.8,2.3-1.8,2.9c-1.1,0.6-2.3,0.8-3.6,0.7c-1.4-0.1-2.8-0.6-4-1.3c-1.4-0.8-2.6-1.9-3.5-3.2c-0.3-0.3-0.5-0.5-0.8-0.8
	c-0.3-0.4-0.6-0.7-1-0.9c-1.1-0.7-2.3-1.1-3.5-1.2c-1.3-0.1-2.5-0.1-3.8,0c-1.2,0.1-2.4,0.3-3.6,0.6c-1.1,0.3-2.2,0.6-3,0.8
	l-6.3,18.6c-0.3,0.7-0.7,1.4-1.3,1.9c-1,0.9-2.3,1.4-3.7,1.4c-1.4,0-2.7-0.3-4-0.9c-1.2-0.5-2.2-1.4-3-2.5c-0.7-1-1-2.3-0.6-3.4
	c2.3-8.3,3.5-12.5,5.9-20.8C410.1,79.4,410.2,79.4,410.3,79.1z"/>
<path class="st18" d="M480.3,126c1.5,0.6,2.9,1.6,4,2.7c0.9,0.8,1.5,1.9,1.8,3.1c0.2,0.9,0,1.9-0.7,2.6c-0.9,0.9-2.1,1.3-3.3,1.4
	c-1.5,0.1-3.1,0-4.5-0.5c-1.7-0.5-3.3-0.9-4.7-1.4c-3.5-1.2-6.6-2.4-9.5-3.8c-2.7-1.2-5.2-2.7-7.6-4.5c-2.2-1.6-4.1-3.5-5.7-5.6
	c-1.7-2.2-3-4.7-3.9-7.3c-0.7-1.8-1-3.7-0.9-5.7c0.2-3.7,1.7-7.3,4.2-10.1c1.2-1.4,2.6-2.5,4.2-3.4c2.5-1.2,5.2-1.7,8-1.6
	c3.6,0,7.1,0.6,10.5,1.5c3.7,1,7.2,2.5,10.6,4.4c3.1,1.7,5.8,3.8,8.1,6.5c1.6,1.8,2.7,3.9,3.5,6.2c0.6,1.8,0.8,3.8,0.4,5.7
	c-0.4,1.6-1.3,3-2.7,4c-1.7,1.1-3.7,1.6-5.7,1.4c-2.4-0.1-4.7-0.4-7-1c-2.3-0.6-4.7-1.3-7.1-2.1s-4.7-1.6-7.1-2.5s-4.7-1.7-7-2.3
	c0.8,1.8,2,3.4,3.5,4.6c1.6,1.3,3.4,2.4,5.3,3.3c2,1,4.1,1.8,6.3,2.4c2.2,0.7,4.4,1.2,6.4,1.7L480.3,126z M467.4,102.5
	c-3.2-0.8-6.5,0.5-8.3,3.1c2,0.6,4.1,1.2,6.6,2.1s4.7,1.6,6.9,2.3c1.9,0.6,3.8,1.2,5.8,1.6c1.7,0.3,2.7,0.2,3.1-0.4
	c0.2-0.4,0.4-0.8,0.4-1.2c0-0.5-0.2-1-0.6-1.4c-1.6-1.7-3.6-3-5.7-3.9c-1.9-0.8-3.8-1.5-5.8-1.9L467.4,102.5z"/>
<path class="st18" d="M523.7,174.7c-0.5,1.2-1.7,2.1-3,2.1c-1.4,0-2.7-0.5-3.7-1.3c-1.3-1-2.3-2.2-3.1-3.6c-0.8-1.5-1.3-3.3-1.2-5
	c-2.1-0.7-4-1.6-5.9-2.8c-1.9-1.2-3.6-2.6-5.3-4.1c-2.5-2.2-4.8-4.7-6.8-7.4c-1.6-2.2-2.9-4.6-3.7-7.2c-0.7-2.2-0.8-4.6-0.3-6.9
	c0.6-2.4,1.9-4.6,3.6-6.3c0.8-0.8,1.7-1.5,2.7-2.1c1-0.6,2-1.1,3.1-1.6c1.4-0.6,2.9-0.9,4.4-1.1c1.6-0.3,3.2-0.4,4.9-0.3
	c6.2,0.4,12.2,2.4,17.4,5.7c1.4,0.9,2.7,1.8,4,2.9c1.6,1.3,3.1,2.7,4.6,4.2c1.4,1.5,2.7,3.1,3.8,4.7c0.9,1.3,1.5,2.7,1.7,4.3
	c0.1,0.8,0,1.6-0.1,2.3c-0.1,0.5-0.3,1-0.7,1.4c-0.4,0.4-0.8,0.8-1.2,1.1c-0.5,0.4-1,0.8-1.7,1.4c-1.1,1-2.1,1.9-3.2,2.8
	c-1,0.9-2,1.9-3,2.8c-0.3,0.3-0.8,0.7-1.3,1.2s-1.1,1-1.7,1.7s-1.1,1.2-1.6,1.8c-0.4,0.5-0.7,1-1,1.6
	C524.8,170.1,524.5,171.6,523.7,174.7z M509.6,154.5c0.8,0.4,1.8,0.7,2.9,1.2c1,0.4,2,0.8,3.1,1c1.4-2.4,3.1-4.6,4.9-6.7
	c1.9-2,3.8-4,5.9-5.8c-2.7-2.2-5.8-3.9-9.2-4.8c-2.7-0.8-5.6-0.8-8.2,0.1c-0.9,0.3-1.8,0.8-2.7,1.2c-0.8,0.5-1.5,1.1-2,1.8
	c-0.7,0.9-1,2-0.9,3.1c0.1,1.2,0.4,2.3,1,3.4c0.6,1.1,1.4,2.2,2.3,3.1C507.5,153.1,508.5,153.9,509.6,154.5z"/>
<path class="st18" d="M560.6,227.3c-0.7,1.9-1.8,2.9-3,3c-1.3,0.1-2.6-0.4-3.6-1.4c-1.3-1.2-2.2-2.6-2.8-4.2c-0.8-1.9-1.1-4-0.9-6
	c-1.7-1.3-3.2-2.7-4.7-4.3c-1.5-1.6-2.9-3.2-4.4-5c-2.2-2.6-3.9-5.5-5.3-8.6c-1.2-2.8-2-5.7-2.5-8.7c-0.4-2.6-0.2-5.3,0.4-7.9
	c0.6-2.3,1.8-4.4,3.5-6c3.7-3.6,9-5.2,14.1-4.3c3.1,0.5,6,1.7,8.6,3.5c3.4,2.2,6.4,5,8.9,8.2c1.7,2.1,3.3,4.4,4.7,6.8
	c1.4,2.4,2.7,4.9,3.8,7.4c0.9-0.6,2-1.3,3.3-2.1s2.5-1.5,3.7-2.1c1.1-0.6,2.2-1.1,3.4-1.6c0.8-0.3,1.6-0.5,2.4-0.5
	c1.3,0.2,2.4,0.8,3.3,1.7c1.1,1,2,2.3,2.8,3.6c0.7,1.4,1.3,2.9,1.5,4.4c0.3,1.4,0.2,2.8-0.2,4.1c-0.2,0.3-0.3,0.7-0.3,1
	c0,0.3-0.2,0.6-0.5,0.7c-6,2.9-12,5.9-17.9,8.7s-15.4,5.5-18,8.5C560.8,226.5,560.7,226.9,560.6,227.3z M556.4,209.8
	c0.3,0.1,0.6,0.3,0.9,0.6c0.4,0.3,0.7,0.4,0.9,0.3l5.5-3.1c1.8-1,3.6-2.1,5.5-3.2c-0.8-2.1-1.8-4.1-2.8-6c-1.1-1.9-2.3-3.8-3.7-5.5
	c-1.3-1.6-2.8-2.9-4.4-4.1c-1.4-1-3.1-1.6-4.8-1.8c-1.1,0.1-2.2,0.3-3.2,0.5c-1,0.2-1.9,0.5-2.7,1c-0.8,0.5-1.5,1.2-1.9,2
	c-0.6,1-0.9,2.1-1,3.2c0,0.4,0,0.9,0.1,1.3c0.1,0.9,0.2,1.9,0.5,2.8c0.9,2.4,3.1,4.9,5,7C551.9,206.9,554,208.6,556.4,209.8z"/>
<path class="st19" d="M102.8,475c0.4,1.4,0.5,2.8,0.1,4.2c-0.2,1-0.8,1.8-1.7,2.3c-1,0.4-2.1,0.3-3-0.2c-1.5-0.9-2.8-2.1-3.7-3.6
	c-1.1-1.6-1.9-3.4-2.6-5.2c-0.8-2.1-1.5-4.3-2-6.5c-0.5-2.2-1-4.4-1.3-6.4s-0.5-3.7-0.6-5.1c-1.6-1.6-3.2-3.4-4.7-5.3
	c-1.6-2.1-3.1-4.3-4.3-6.7c-1-1.6-1.8-3.3-2.5-5.1c-0.6-1.8-1.2-3.5-1.6-5c-1.5-4.5-2.3-9.2-2.6-14c-0.3-4,0.3-8,1.8-11.7
	c1.3-3.4,3.5-6.3,6.4-8.5c2.7-1.9,5.8-3.1,9.1-3.5c3.5-0.3,7,0,10.3,1.1c3.7,1.2,7.2,3.1,10.3,5.6c3.6,2.8,6.8,6.2,9.4,10
	c2.8,3.9,5.2,8.2,7.1,12.6c1.8,4.2,3.1,8.7,3.8,13.3c0.7,4.1,0.4,8.3-0.9,12.2c-1,2.9-2.5,5.5-4.6,7.7c-2,2.2-4.4,3.9-7.1,5
	c-2.8,1.2-5.9,1.8-8.9,1.8c-3.4,0-6.7-0.7-9.9-2.1c0.4,2.2,0.9,4.3,1.5,6.5C101.3,470.6,102.2,472.8,102.8,475z M99.7,436.9
	c0.3,2,0.3,4-0.1,5.9c-0.4,2.1-0.7,4.1-0.9,6c2.1,0.8,4.3,1.3,6.6,1.3c2.1,0,4.2-0.2,6.2-0.6l2.6-1.5c0.9-0.5,1.7-1.1,2.5-1.8
	c0.8-0.7,1.5-1.5,2.1-2.3c0.7-0.9,1.1-2,1.3-3.1c0.5-2.2,0.6-4.4,0.2-6.6c-0.4-2.5-1-5-1.9-7.3c-0.9-2.4-2.1-4.7-3.5-6.9
	c-1.4-2-3.1-3.9-5-5.4c-2.9-2.3-6.2-3.9-9.9-4.8c-3-0.7-6.1-0.5-9,0.6c-3.5,1.4-6.1,4.2-7.3,7.8c-0.7,2.2-1,4.6-0.9,6.9
	c0.2,3,0.9,6,2.1,8.8c0.8,2.2,1.9,4.2,3.1,6.2c0.2-2.1,0.5-4.2,1-6.3c0.2-1.7,1-3.2,2.2-4.4c0.6-0.5,1.5-0.7,2.3-0.5
	c1,0.3,1.8,0.8,2.6,1.5c0.9,0.8,1.7,1.7,2.3,2.8C99,434.3,99.5,435.6,99.7,436.9L99.7,436.9z"/>
<path class="st19" d="M148.3,521.8c0.2,1.8-0.9,3.4-2.6,3.9c-0.9,0.3-1.9,0.2-2.9-0.1c-1.3-0.5-2.4-1.2-3.3-2.2
	c-1.3-1.3-2.2-2.8-2.7-4.5c-0.4-1.5-0.6-2.9-0.7-4.4c-6.5-2.3-12.1-6.6-16-12.3c-1.8-2.7-3.2-5.6-4-8.8c-0.8-2.9-0.9-6-0.3-9
	c0.5-2.5,1.7-4.8,3.7-6.5c1.9-1.6,3.8-3.1,5.6-4.3c0.6-0.5,1.3-0.9,1.9-1.3s1.3-0.8,2-1.2c0.5-0.3,1.1-0.6,1.6-1
	c0.5-0.3,1-0.6,1.5-0.9c0.5-0.2,1.1-0.4,1.7-0.4c0.7,0,1.4,0.1,2.1,0.3c1.1,0.4,2.1,1,2.8,1.9c0.8,0.9,1.5,1.9,2,3
	c0.5,1,0.7,2.1,0.8,3.2c0.1,0.9-0.2,1.8-0.8,2.5c-1.8,1.7-3.8,3.3-6,4.6c-2.1,1.3-4,2.9-5.7,4.8c-0.9,1-1.5,2.2-1.8,3.4
	c-0.4,1.6-0.2,3.3,0.6,4.8c0.8,1.7,2.1,3.2,3.7,4.2c1.4,0.9,2.9,1.6,4.5,2c0.7,0.1,1.3,0.3,2,0.3c0.7,0.1,1.4,0.2,2,0.4
	c1-1.4,2.1-2.7,3.3-3.9c1.2-1.2,2.5-2.4,3.7-3.5c0.7-0.6,1.4-1.3,2.3-2c0.9-0.7,1.8-1.2,2.9-1.5c1.1-0.3,2.2-0.4,3.4-0.3
	c1.4,0.3,2.7,0.9,3.8,1.9c0.6,0.5,1.1,1.1,1.5,1.8c0.4,0.6,0.7,1.3,0.9,2c0.3,0.9,0.4,1.9,0.1,2.8c-0.2,0.8-0.7,1.5-1.2,2.1
	c-0.6,0.6-1.2,1.2-1.9,1.6c-0.7,0.4-1.3,0.9-1.9,1.5c-1,0.9-2.1,1.8-3.2,2.9c-1.1,1-2.1,2.2-3,3.4c-0.9,1.3-1.5,2.6-2,4.1
	C148.1,518.5,148,520.2,148.3,521.8z"/>
<path class="st19" d="M179.2,498.8c1.2-1.1,2.9-1.6,4.5-1.3c1.6,0.3,3.1,1,4.3,2c1.2,1,2.1,2.3,2.6,3.8c0.5,1.4,0.3,3-0.6,4.3
	c-0.8,1.3-2.2,2.1-3.8,1.9c-3.4-0.3-6.3-2.4-7.7-5.5c-0.7-1.5-0.5-3.2,0.3-4.6C179.1,499.1,179.1,499,179.2,498.8z M164.2,540.1
	c-0.8,0.7-1.8,1.1-2.9,1c-1.2,0-2.5-0.3-3.6-0.8c-1.2-0.6-2.4-1.4-3.3-2.4c-1-1-1.6-2.3-1.9-3.7c-0.2-0.7-0.2-1.4,0-2.2
	c0.2-0.6,0.5-1.2,0.8-1.8c0.4-0.5,0.8-1.1,1.2-1.5c0.5-0.5,0.9-0.9,1.2-1.3c1.8-2.2,3.6-4.4,5.5-6.5s3.7-4.3,5.5-6.5
	c0.8-0.9,1.5-1.9,2.1-2.9c0.6-1,1.5-1.9,2.5-2.5c0.9-0.4,1.9-0.6,2.9-0.5c1.1,0.1,2.2,0.4,3.1,0.9c1,0.5,1.9,1.2,2.7,2.1
	c0.8,0.9,1.2,1.9,1.4,3.1c0.3,1.1,0.2,2.3-0.4,3.3l-2.1,2.7l-3,3.9c-1,1.3-2,2.6-2.9,3.9c-1.3,1.9-2.8,3.8-4.2,5.6l-4.3,5.5
	L164.2,540.1z"/>
<path class="st19" d="M215.2,571.3c-0.8,1-2,1.7-3.3,1.8c-1.5,0.2-3,0-4.4-0.5c-1.4-0.5-2.7-1.3-3.8-2.3c-1-0.9-1.6-2.3-1.5-3.7
	c0-1.5,0.5-2.9,1.3-4.1c0.8-1.2,1.6-2.4,2.2-3.5c1.2-2.3,2.5-4.6,3.8-6.8c1.3-2.3,2.4-4.7,3.3-7.1c0-0.1,0-0.2-0.1-0.3
	c-0.1-0.2-0.1-0.3-0.2-0.5c-1.4-1.1-3-1.9-4.7-2.4c-1.6-0.5-3.3-0.8-5-0.9c-1.4,0-2.9,0.1-4.3,0.4c-1.2,0.2-2.4,0.8-3.1,1.8
	l-5.4,8.5c-0.4,0.7-0.8,1.4-1.3,2.2c-0.4,0.8-0.9,1.5-1.6,2.2c-0.7,0.7-1.5,1.1-2.4,1.3c-1.3,0.2-2.6,0-3.8-0.5
	c-0.8-0.3-1.5-0.7-2.2-1.2c-0.6-0.5-1.3-1.1-1.8-1.7c-0.9-0.8-1.5-1.8-1.7-3c-0.1-0.9-0.1-1.8,0.2-2.6c0.2-0.8,0.6-1.5,1.1-2.1
	c0.5-0.6,0.8-1.1,1.1-1.4c0.6-0.9,1.5-2.2,2.7-4s2.4-3.6,3.8-5.5l3.8-5.5c1.2-1.7,2.1-3,2.8-4c0.6-0.9,1.6-1.4,2.6-1.4
	c1.2-0.1,2.4,0.2,3.5,0.7c1.2,0.5,2.3,1.3,3.2,2.2c0.9,0.9,1.6,2.2,1.9,3.5c3.2,0.5,6.3,1.3,9.2,2.5c2.9,1.2,5.7,2.8,8.2,4.7
	c2.2,1.7,3.9,3.8,5.1,6.2c1.1,2.3,1.1,5-0.1,7.3c-0.1,0.3-0.2,0.5-0.3,0.8c-0.2,0.6-0.5,1.3-0.8,1.9
	C220,561.3,218.4,564.6,215.2,571.3z"/>
<path class="st19" d="M237.1,556.5c-1.1-0.7-2.1-1.5-2.9-2.5c-0.6-0.8-1-1.7-1.1-2.7c0-0.8,0.3-1.7,1-2.2c0.9-0.7,2.1-1.1,3.3-1.1
	c1.3-0.1,2.6,0.1,3.8,0.6c1.3,0.5,2.5,1,3.8,1.5c0.1-0.3,0.4-1,0.7-2.1s0.8-2.2,1.3-3.5c0.5-1.2,1.1-2.4,1.8-3.5
	c0.4-0.9,1.1-1.6,2-2c1.6-0.8,3.6-0.8,5.2-0.1c1.7,0.6,3,1.9,3.8,3.5c0.2,0.3,0.3,0.7,0.4,1.1c0.1,0.3,0.1,0.7,0,1
	c-0.5,1.6-1,3.3-1.7,5s-1.2,3.3-1.7,4.9c3.1,1,4.7,1.5,7.8,2.4c1.1,0.3,2.1,0.9,2.8,1.7c0.6,0.7,1.1,1.5,1.3,2.5
	c0.2,0.8,0,1.7-0.3,2.4c-0.5,0.8-1.2,1.4-2.1,1.5c-1.9,0.4-4,0.4-5.9-0.2c-2.1-0.6-4.2-1.2-6.4-2c-0.9,2.5-1.7,5-2.6,7.5
	c-0.9,2.5-1.7,5.1-2.5,7.6c-0.4,1.1-0.7,2.3-0.9,3.5c-0.2,1.2-0.7,2.3-1.5,3.2c-0.7,0.7-1.6,1.2-2.6,1.3c-1.1,0.2-2.2,0.1-3.3-0.1
	c-1.2-0.3-2.3-0.8-3.4-1.4c-1.1-0.6-2.1-1.4-2.9-2.3c-0.4-0.6-0.6-1.3-0.5-2.1c0-0.9,0.2-1.8,0.5-2.6c0.3-1,0.8-2.1,1.3-3.2
	c0.4-0.9,0.8-2.1,1.4-3.5s1.2-2.9,1.7-4.5s1.2-3,1.7-4.4l1.3-3.3C239.7,557.7,238.9,557.3,237.1,556.5z"/>
<path class="st19" d="M305,588.7c1.6-0.1,3.2,0.1,4.8,0.5c1.1,0.3,2.2,0.8,3.1,1.6c0.7,0.6,1,1.5,0.8,2.4c-0.3,1.2-1.1,2.1-2.2,2.7
	c-1.3,0.8-2.8,1.4-4.4,1.7c-1.7,0.4-3.4,0.6-5.1,0.8c-3.7,0.4-7.3,0.5-11,0.3c-3.2-0.2-6.4-0.7-9.5-1.7c-2.8-0.9-5.4-2.1-7.8-3.8
	c-2.3-1.6-4.4-3.7-6-6c-1.1-1.5-1.8-3.3-2.1-5.2c-0.3-1.7-0.2-3.5,0.2-5.2c0.4-1.7,1.1-3.3,2-4.8c0.9-1.5,2-2.8,3.3-3.9
	c2-1.5,4.3-2.6,6.7-3.1c3-0.8,6-1.3,9.1-1.5c3.2-0.2,6.4-0.1,9.6,0.3c2.9,0.3,5.7,1.1,8.3,2.3c1.9,0.9,3.6,2.1,5,3.5
	c1.2,1.2,2.1,2.8,2.7,4.5c0.4,1.5,0.3,3.1-0.3,4.5c-0.8,1.7-2.3,3-4,3.8c-2,1-4.2,1.8-6.4,2.2c-2.4,0.5-4.7,0.8-7.1,1
	c-2.5,0.2-5,0.2-7.5,0.2c-2.5-0.1-5-0.1-7.4-0.1c1.3,1.5,3,2.6,4.9,3.2c2,0.7,4.2,1.1,6.3,1.3c2.3,0.2,4.6,0.1,6.9-0.2
	c2.2-0.3,4.4-0.6,6.5-1.2L305,588.7z M285.1,573c-3,0.2-5.6,2.2-6.7,5c2,0,4.1,0.1,6.5,0.1c2.4,0,4.7,0,6.9-0.1
	c1.9-0.1,3.7-0.3,5.5-0.7c1.5-0.4,2.3-0.9,2.4-1.5c0.1-0.4,0-0.8-0.1-1.2c-0.2-0.4-0.5-0.8-1-0.9c-1.9-0.8-4-1.2-6.1-1.3
	c-1.8-0.1-3.7,0-5.5,0.3L285.1,573z"/>
<path class="st19" d="M319.4,594.9c-0.4-0.7-0.5-1.6-0.4-2.4c0.1-0.8,0.5-1.5,1.1-2.1c0.7-0.7,1.6-1.1,2.5-1.4
	c1.2-0.3,2.5-0.4,3.8-0.2c0.8,0.1,1.5,0.3,2.2,0.5c0.6,0.3,1.2,0.6,1.8,0.9c0.5,0.3,1.1,0.7,1.7,1.1c0.5,0.4,1.1,0.7,1.7,1
	c1.3,0.7,2.7,1.1,4.1,1.4c1.5,0.3,3,0.5,4.6,0.6c0.9,0,1.8-0.1,2.6-0.6c0.6-0.3,1-0.7,1.3-1.3c0.2-0.5,0.3-1,0.1-1.6
	c-0.1-0.5-0.4-1-0.9-1.3c-1.4-0.8-3-1.3-4.7-1.5c-1.8-0.2-3.5-0.5-5.1-0.9c-2.2-0.5-4.4-1.2-6.5-2c-1.9-0.7-3.6-1.8-5-3.3
	c-1.2-1.2-2-2.8-2.2-4.4c-0.2-1.5,0.1-3.1,0.8-4.4c0.8-1.5,1.9-2.8,3.2-3.8c1.5-1.2,3.2-2.1,5.1-2.8c1.5-0.5,3.1-0.9,4.7-1
	c1.7-0.2,3.4-0.2,5.2-0.1c1.7,0.1,3.5,0.3,5.2,0.6c1.7,0.3,3.3,0.6,4.8,1c1.4,0.3,2.8,1,3.8,2c0.8,0.7,1.3,1.8,1.4,2.9
	c0,1-0.5,2-1.3,2.7c-1.2,0.9-2.7,1.3-4.1,1.3c-1,0.1-2.1,0-3.1-0.3c-0.9-0.2-1.9-0.5-2.9-0.7c-1.4-0.3-2.8-0.5-4.2-0.6
	c-1.2-0.1-2.4-0.1-3.6,0.2c-0.3,0.1-0.7,0.2-1,0.5c-0.4,0.3-0.6,0.6-0.8,1c-0.2,0.4-0.2,0.8-0.1,1.2c0.1,0.4,0.5,0.7,1.1,1
	c1.8,0.7,3.6,1.1,5.5,1.4c1.9,0.3,3.9,0.7,5.8,1c1.8,0.4,3.6,0.8,5.3,1.5c1.6,0.5,3.1,1.5,4.3,2.7c1.6,1.4,2.7,3.4,2.9,5.6
	c0.2,2-0.3,4.1-1.5,5.7c-1.4,2-3.3,3.7-5.5,4.8c-2.8,1.5-5.9,2.3-9,2.5c-2.4,0.2-4.8,0.1-7.2-0.2c-2.3-0.3-4.6-0.9-6.8-1.6
	c-2.1-0.7-4.1-1.6-6-2.7c-1.7-1-3.2-2.1-4.7-3.3L319.4,594.9z"/>
<path class="st19" d="M366.3,594.2c-0.5-0.7-0.8-1.5-0.8-2.4c0-0.8,0.3-1.6,0.8-2.2c0.6-0.8,1.4-1.4,2.2-1.8
	c1.2-0.5,2.5-0.8,3.7-0.8c0.8-0.1,1.5,0,2.3,0.2c0.7,0.1,1.4,0.4,2,0.6c0.6,0.3,1.2,0.5,1.8,0.8c0.6,0.3,1.2,0.6,1.9,0.8
	c1.4,0.4,2.8,0.7,4.3,0.8c1.5,0.1,3.1,0,4.6-0.1c0.9-0.1,1.7-0.4,2.4-1c0.5-0.4,0.8-0.9,1-1.5c0.1-0.5,0.1-1.1-0.1-1.6
	c-0.2-0.5-0.6-0.9-1.1-1.2c-1.6-0.6-3.2-0.9-4.9-0.8c-1.7,0.1-3.4,0.1-5.1,0c-2.3-0.1-4.5-0.4-6.8-0.9c-2-0.4-3.9-1.2-5.5-2.5
	c-1.4-1-2.4-2.4-2.9-4c-0.4-1.5-0.4-3,0.1-4.5c0.5-1.6,1.4-3.1,2.5-4.3c1.3-1.4,2.8-2.6,4.5-3.6c1.4-0.8,2.9-1.4,4.5-1.8
	c1.7-0.4,3.4-0.7,5.1-0.9c1.7-0.2,3.5-0.3,5.2-0.2c1.8,0,3.4,0.1,4.9,0.2c1.5,0.1,2.9,0.6,4.2,1.4c0.9,0.6,1.6,1.5,1.8,2.6
	c0.2,1-0.1,2.1-0.8,2.8c-1,1.1-2.4,1.8-3.9,2c-1,0.2-2.1,0.3-3.1,0.2c-1-0.1-2-0.1-3-0.2c-1.4-0.1-2.8-0.1-4.2,0
	c-1.2,0.1-2.4,0.3-3.5,0.8c-0.3,0.1-0.6,0.3-0.9,0.6c-0.3,0.3-0.5,0.7-0.6,1.1c-0.3,0.7,0.1,1.6,0.8,1.8c0.2,0.1,0.3,0.1,0.5,0.1
	c1.9,0.4,3.8,0.5,5.7,0.5c2,0,3.9,0,5.9,0.1c1.9,0.1,3.7,0.3,5.5,0.6c1.7,0.3,3.3,0.9,4.7,1.9c1.8,1.2,3.2,2.9,3.8,5
	c0.5,2,0.4,4-0.5,5.9c-1,2.2-2.6,4.2-4.6,5.6c-2.5,1.9-5.4,3.2-8.4,3.9c-2.3,0.6-4.7,0.9-7.1,1c-2.3,0.1-4.7-0.1-7-0.5
	c-2.2-0.4-4.3-1-6.3-1.7c-1.8-0.7-3.5-1.5-5.2-2.5L366.3,594.2z"/>
<path class="st19" d="M452.3,567.1c1.3-0.9,2.8-1.6,4.4-2c1.1-0.3,2.4-0.4,3.5-0.2c0.9,0.2,1.7,0.8,2,1.7c0.3,1.2,0.1,2.4-0.5,3.5
	c-0.7,1.4-1.7,2.6-2.9,3.7c-1.3,1.2-2.6,2.3-4,3.3c-3,2.2-6.1,4.1-9.4,5.8c-2.9,1.5-6,2.6-9.1,3.3c-2.8,0.7-5.8,0.9-8.7,0.7
	c-2.9-0.2-5.7-1-8.3-2.2c-1.7-0.8-3.3-1.9-4.5-3.4c-1.1-1.4-2-2.9-2.5-4.6c-0.5-1.7-0.8-3.4-0.8-5.1c0-1.7,0.3-3.4,0.8-5
	c0.9-2.3,2.3-4.4,4.1-6.1c2.2-2.2,4.5-4.1,7.1-5.8c2.7-1.8,5.5-3.3,8.5-4.6c2.7-1.2,5.5-2,8.4-2.2c2.1-0.2,4.1,0,6.2,0.5
	c1.7,0.4,3.3,1.3,4.6,2.5c1.1,1.1,1.9,2.5,2.1,4c0.2,1.9-0.4,3.7-1.5,5.3c-1.2,1.9-2.7,3.6-4.4,5.1c-1.8,1.6-3.7,3.1-5.7,4.4
	c-2.1,1.4-4.2,2.7-6.4,3.9c-2.2,1.2-4.4,2.4-6.4,3.6c1.9,0.6,3.9,0.7,5.9,0.3c2.1-0.4,4.1-1,6-2c2.1-1,4-2.2,5.9-3.6
	c1.8-1.3,3.5-2.8,5.1-4.3L452.3,567.1z M426.8,563.6c-1.2,0.9-2.1,2.1-2.7,3.4c-0.5,1.4-0.6,2.8-0.4,4.3l5.7-3.2
	c2.1-1.2,4.1-2.4,5.9-3.6c1.6-1,3-2.2,4.4-3.4c1.1-1.1,1.5-1.9,1.3-2.5c-0.2-0.4-0.4-0.7-0.7-0.9c-0.4-0.3-0.9-0.4-1.3-0.3
	c-2.1,0.3-4.1,1-5.9,2c-1.6,0.8-3.2,1.9-4.6,3C427.8,562.8,427.4,563.1,426.8,563.6z"/>
<path class="st19" d="M509.5,542.8c0.5,1.2,0.5,2.5,0,3.7c-0.6,1.4-1.4,2.6-2.5,3.6c-1.1,1-2.4,1.8-3.9,2.3c-1.3,0.5-2.8,0.3-4-0.4
	c-1.3-0.7-2.4-1.8-3.1-3.1c-0.7-1.3-1.4-2.5-2.1-3.5c-1.5-2.2-2.9-4.3-4.3-6.5c-1.4-2.2-3-4.3-4.8-6.2l-0.3-0.1c-0.2,0-0.4,0-0.5,0
	c-1.6,0.7-3.1,1.8-4.3,3.1c-1.2,1.2-2.3,2.5-3.2,3.9c-0.7,1.3-1.3,2.6-1.6,4c-0.4,1.2-0.4,2.5,0.1,3.6l5.1,8.7
	c0.4,0.7,0.9,1.4,1.4,2.1c0.5,0.7,0.9,1.5,1.2,2.4c0.3,0.9,0.3,1.9,0,2.8c-0.4,1.2-1.2,2.3-2.2,3.1c-0.6,0.5-1.3,1-2,1.4
	c-0.8,0.3-1.5,0.6-2.3,0.8c-1.1,0.4-2.3,0.4-3.4,0.1c-0.8-0.3-1.6-0.8-2.2-1.4c-0.6-0.6-1-1.2-1.3-1.9c-0.3-0.7-0.6-1.2-0.8-1.6
	c-0.5-1-1.3-2.4-2.3-4.3s-2.1-3.8-3.1-5.9s-2.1-4-3.1-5.9l-2.2-4.3c-0.5-0.9-0.5-2.1,0-3c0.5-1.1,1.2-2,2.2-2.7
	c1-0.8,2.2-1.4,3.5-1.7c1.3-0.4,2.6-0.4,3.9,0c1.9-2.6,4.1-4.9,6.6-6.9c2.4-2,5.1-3.7,8.1-5c2.5-1.1,5.2-1.7,8-1.6
	c2.6,0.1,5,1.4,6.5,3.4c0.2,0.2,0.4,0.4,0.6,0.6c0.5,0.5,0.9,1,1.3,1.6L509.5,542.8z"/>
<path class="st19" d="M506.8,516.5c-1.1,0.7-2.4,1.2-3.7,1.4c-1,0.2-2,0.2-3-0.2c-0.8-0.3-1.3-1-1.5-1.9c-0.2-1.2,0.1-2.4,0.6-3.4
	c0.5-1.2,1.4-2.3,2.4-3.1c1.1-0.9,2.1-1.8,3.2-2.7c-0.2-0.3-0.7-0.8-1.5-1.6s-1.6-1.8-2.5-2.8c-0.8-1-1.6-2.1-2.3-3.2
	c-0.6-0.8-0.9-1.7-0.9-2.7c0.1-1.9,1-3.6,2.4-4.8c1.4-1.2,3.2-1.9,5-1.9c0.4,0,0.8,0,1.2,0.1c0.3,0.1,0.7,0.2,0.9,0.4
	c1.2,1.2,2.5,2.5,3.7,3.7s2.4,2.6,3.6,3.8c2.4-2.4,3.6-3.6,6-6c0.8-0.9,1.8-1.5,3-1.8c0.9-0.3,1.9-0.3,2.9-0.1
	c0.8,0.2,1.5,0.7,2,1.4c0.5,0.8,0.6,1.8,0.3,2.7c-0.6,2-1.6,3.8-3.1,5.3c-1.5,1.7-3.2,3.3-4.9,5c1.8,1.9,3.7,3.9,5.5,5.8
	s3.8,3.9,5.6,5.7c0.8,0.9,1.7,1.6,2.7,2.4c1,0.7,1.7,1.7,2.1,2.8c0.3,1,0.3,2,0,2.9c-0.4,1.1-1,2.1-1.7,3c-0.8,0.9-1.8,1.8-2.9,2.4
	c-1.1,0.7-2.3,1.2-3.5,1.5c-0.7,0.1-1.5-0.1-2.1-0.5c-0.8-0.5-1.5-1-2.1-1.6c-0.8-0.8-1.5-1.7-2.2-2.6c-0.6-0.7-1.5-1.7-2.5-2.9
	s-2.1-2.4-3.2-3.6s-2.2-2.4-3.2-3.6l-2.3-2.7C509.1,514.6,508.3,515.2,506.8,516.5z"/>
<path class="st19" d="M521.4,475.2c-1.1-1.3-1.6-3-1.3-4.6c0.3-1.6,1-3.2,2-4.4c1-1.3,2.4-2.2,3.9-2.8c1.4-0.6,3-0.4,4.3,0.5
	c1.3,0.8,2,2.3,1.9,3.8c-0.2,1.7-0.8,3.3-1.8,4.7c-1,1.4-2.4,2.6-4,3.3c-1.5,0.7-3.2,0.6-4.7-0.2L521.4,475.2z M562.8,489.8
	c0.7,0.8,1.1,1.9,1,3c0,1.3-0.3,2.6-0.8,3.7c-0.6,1.3-1.4,2.5-2.5,3.4c-1.1,1-2.4,1.7-3.8,2c-0.7,0.2-1.5,0.2-2.2,0
	c-0.6-0.2-1.2-0.5-1.8-0.8c-0.5-0.4-1.1-0.8-1.5-1.2c-0.5-0.5-0.9-0.9-1.3-1.2c-2.2-1.8-4.4-3.7-6.5-5.5s-4.3-3.7-6.5-5.5
	c-0.9-0.8-1.9-1.5-2.9-2.1c-1-0.6-1.9-1.5-2.5-2.6c-0.4-0.9-0.6-1.9-0.5-2.9c0.1-1.1,0.5-2.2,1-3.2c0.5-1,1.3-2,2.1-2.8
	c0.9-0.8,2-1.3,3.1-1.5c1.1-0.4,2.3-0.2,3.3,0.4l2.7,2.1l3.9,3c1.3,1,2.6,2,3.9,2.9c1.9,1.3,3.8,2.8,5.6,4.2l5.5,4.4L562.8,489.8z"
	/>
<path class="st19" d="M595.8,431c1.3-0.2,2.6,0.5,3,1.8c0.4,1.5,0.4,3.1,0,4.5c-0.5,1.9-1.4,3.6-2.5,5.1c-1.1,1.6-2.6,2.9-4.4,3.7
	c-0.2,2.5-0.6,5-1.4,7.4c-0.9,2.5-1.9,5-3.2,7.3c-1.8,3.5-4.1,6.8-6.8,9.7c-2,2.3-4.4,4.2-7.1,5.6c-2.1,1.1-4.5,1.6-6.9,1.4
	c-2.3-0.3-4.5-1.4-6.2-3c-0.8-0.8-1.4-1.6-2-2.6c-0.6-1-1.1-2-1.6-3c-0.6-1.3-1-2.7-1.3-4.2c-0.4-1.5-0.6-3.1-0.7-4.6
	c-0.3-5.8,0.5-11.5,2.3-17c0.3-1,0.8-2.4,1.6-4.2s1.5-3.4,2.4-5.1c0.9-1.6,1.8-3.2,2.9-4.7c0.8-1.2,1.8-2.2,3.1-2.9
	c0.6-0.3,1.3-0.6,2-0.7c0.5-0.1,1-0.1,1.5,0.1c0.5,0.2,1,0.4,1.4,0.7c0.5,0.3,1.1,0.6,1.8,1c1.2,0.6,2.4,1.2,3.5,1.8
	s2.4,1.1,3.5,1.6c0.4,0.2,0.9,0.4,1.5,0.7c0.7,0.3,1.4,0.6,2,0.8c0.7,0.3,1.5,0.5,2.1,0.7c0.6,0.2,1.2,0.2,1.8,0.2
	C591.3,432.5,592.8,432,595.8,431z M580.7,454.3c0.2-0.9,0.3-2.1,0.5-3.3c0.2-1.2,0.3-2.3,0.2-3.5c-2.6-0.5-5-1.4-7.4-2.5
	c-2.3-1.1-4.6-2.4-6.8-3.8c-1.3,3.1-2.1,6.5-2.2,9.9c-0.3,2.7,0.2,5.5,1.4,8c0.4,0.8,0.9,1.6,1.5,2.4c0.5,0.7,1.2,1.3,2,1.7
	c1,0.5,2.1,0.6,3.1,0.2c1.2-0.4,2.3-1.1,3.2-1.9c1-1,1.9-2.1,2.7-3.3C579.8,456.9,580.3,455.6,580.7,454.3z"/>
<path class="st19" d="M604.8,403.8c0.7-0.8,1.6-1.4,2.5-1.9c0.8-0.4,1.6-0.5,2.5-0.4c0.8,0.2,1.4,0.8,1.7,1.6c0.4,1.3,0.5,2.7,0.2,4
	c-0.2,1.5-0.7,3-1.4,4.5c-0.7,1.5-1.5,3-2.5,4.4c-0.9,1.3-1.9,2.4-3,3.5c-0.8,0.8-1.7,1.4-2.8,1.8c-0.3,0.1-0.6,0.1-0.9,0.1
	c-0.3,0-0.6-0.1-0.8-0.2L563,406c-1.1-0.6-1.9-1.7-1.9-2.9c-0.2-1.6-0.1-3.1,0.3-4.6c0.2-0.8,0.6-1.6,1-2.3c0.5-0.7,1-1.4,1.6-2.1
	c0.5-0.6,1.1-1,1.8-1.4c0.5-0.3,1.1-0.4,1.7-0.2l4.7,1.6c2,0.7,4.1,1.4,6.5,2.1s4.8,1.5,7.3,2.4s4.9,1.7,7.2,2.5s4.4,1.5,6.3,2.2
	s3.4,1.2,4.5,1.7L604.8,403.8z"/>
<circle class="st20" cx="76.9" cy="314" r="21"/>
<circle class="st20" cx="596.1" cy="314" r="21"/>
<polygon class="st21" points="15.2,703.8 30.8,720.5 46.5,737.1 30.8,753.7 15.2,770.4 15.2,770.4 177.1,770.4 177.1,703.8 "/>
<polygon class="st21" points="659.6,703.8 644,720.5 628.3,737.1 644,753.7 659.6,770.4 659.6,770.4 497.7,770.4 497.7,703.8 "/>
<polygon class="st22" points="532.7,731.7 494.2,731.7 494.2,752.8 494.2,773.9 532.7,752.8 571.2,731.7 "/>
<polygon class="st22" points="142.1,731.7 180.6,731.7 180.6,752.8 180.6,773.9 142.1,752.8 103.6,731.7 "/>
<rect x="103.6" y="661.4" class="st23" width="467.5" height="70.3"/>
<text transform="matrix(1 0 0 1 111.9876 712.0398)" class="st0 st24 st25">Qu</text>
<text transform="matrix(1 0 0 1 111.9876 712.0398)" class="st26 st24 st25">Qu</text>
<text transform="matrix(1 0 0 1 170.4276 712.0398)" class="st0 st24 st25">a</text>
<text transform="matrix(1 0 0 1 170.4276 712.0398)" class="st26 st24 st25">a</text>
<text transform="matrix(1 0 0 1 194.4576 712.0398)" class="st0 st24 st25 st27">l</text>
<text transform="matrix(1 0 0 1 194.4576 712.0398)" class="st26 st24 st25 st27">l</text>
<text transform="matrix(1 0 0 1 206.3576 712.0398)" class="st0 st24 st25 st28">i</text>
<text transform="matrix(1 0 0 1 206.3576 712.0398)" class="st26 st24 st25 st28">i</text>
<text transform="matrix(1 0 0 1 214.7076 712.0398)" class="st0 st24 st25">ty </text>
<text transform="matrix(1 0 0 1 214.7076 712.0398)" class="st26 st24 st25">ty </text>
<text transform="matrix(1 0 0 1 277.9376 712.0398)" class="st0 st24 st25 st28">a</text>
<text transform="matrix(1 0 0 1 277.9376 712.0398)" class="st26 st24 st25 st28">a</text>
<text transform="matrix(1 0 0 1 299.2576 712.0398)" class="st0 st24 st25">t </text>
<text transform="matrix(1 0 0 1 299.2576 712.0398)" class="st26 st24 st25">t </text>
<text transform="matrix(1 0 0 1 338.1076 712.0398)" class="st0 st24 st25 st28">i</text>
<text transform="matrix(1 0 0 1 338.1076 712.0398)" class="st26 st24 st25 st28">i</text>
<text transform="matrix(1 0 0 1 346.4476 712.0398)" class="st0 st24 st25">ts Ep</text>
<text transform="matrix(1 0 0 1 346.4476 712.0398)" class="st26 st24 st25">ts Ep</text>
<text transform="matrix(1 0 0 1 453.8976 712.0398)" class="st0 st24 st25 st28">i</text>
<text transform="matrix(1 0 0 1 453.8976 712.0398)" class="st26 st24 st25 st28">i</text>
<text transform="matrix(1 0 0 1 462.2476 712.0398)" class="st0 st24 st25 st27">t</text>
<text transform="matrix(1 0 0 1 462.2476 712.0398)" class="st26 st24 st25 st27">t</text>
<text transform="matrix(1 0 0 1 481.1577 712.0398)" class="st0 st24 st25">o</text>
<text transform="matrix(1 0 0 1 481.1577 712.0398)" class="st26 st24 st25">o</text>
<text transform="matrix(1 0 0 1 504.7476 712.0398)" class="st0 st24 st25">m</text>
<text transform="matrix(1 0 0 1 504.7476 712.0398)" class="st26 st24 st25">m</text>
<text transform="matrix(1 0 0 1 539.1976 712.0398)" class="st0 st24 st25">e</text>
<text transform="matrix(1 0 0 1 539.1976 712.0398)" class="st26 st24 st25">e</text>
<line class="st29" x1="109.8" y1="735.2" x2="180.6" y2="773.9"/>
<line class="st30" x1="109.8" y1="735.2" x2="180.2" y2="773.7"/>
<line class="st30" x1="180.6" y1="773.9" x2="180.6" y2="735"/>
<line class="st30" x1="565" y1="734.9" x2="494.6" y2="773.4"/>
<line class="st30" x1="494.2" y1="773.6" x2="494.2" y2="734.7"/>
<path d="M409.7,80.6c0.8,0,1.5-0.7,1.5-1.5s-0.7-1.5-1.5-1.5s-1.5,0.7-1.5,1.5S408.9,80.6,409.7,80.6z"/>
<path d="M409.7,80.6c0.8,0,1.5-0.7,1.5-1.5s-0.7-1.5-1.5-1.5s-1.5,0.7-1.5,1.5S408.9,80.6,409.7,80.6z"/>
<path d="M409.7,80.5c0.8,0,1.5-0.7,1.5-1.5s-0.7-1.5-1.5-1.5s-1.5,0.7-1.5,1.5S408.9,80.5,409.7,80.5z"/>
<path d="M412.3,78.6L412.3,78.6l0,0.3c0-0.1,0-0.2,0-0.2l0,0.4c0-0.1,0.1-0.3,0.1-0.4l-0.2,0.4c0.1-0.2,0.2-0.4,0.3-0.7
	c0.2-0.3,0.3-0.7,0.4-1h-2.9c0,0,0,0.1,0,0.1v-0.4c0,0.1,0,0.2,0,0.3l0.1-0.4c-0.1,0.3-0.2,0.7-0.3,1l-0.5,1.1c0,0.2,0,0.4,0,0.6
	c0,0.2,0.1,0.4,0.2,0.6c0.2,0.3,0.5,0.6,0.9,0.7c0.4,0.1,0.8,0.1,1.2-0.1l0.3-0.2c0.2-0.2,0.3-0.4,0.4-0.7c0.2-0.5,0.4-0.9,0.5-1.4
	c0.3-0.6,0.3-1.3,0.2-2l-0.2-0.4c-0.1-0.2-0.2-0.3-0.4-0.4c-0.3-0.2-0.6-0.3-0.9-0.3c-0.3,0-0.5,0.1-0.8,0.2
	c-0.3,0.2-0.6,0.5-0.7,0.9c0,0.1-0.1,0.3-0.1,0.4l0.2-0.4c-0.1,0.3-0.3,0.5-0.4,0.8c-0.1,0.2-0.2,0.5-0.3,0.7c0,0.2-0.1,0.4-0.1,0.6
	c0,0.2,0,0.4,0.1,0.6c0,0.2,0.1,0.4,0.3,0.5c0.1,0.2,0.3,0.3,0.4,0.4c0.4,0.2,0.8,0.3,1.2,0.1c0.4-0.1,0.7-0.4,0.9-0.7l0.2-0.4
	C412.5,79.1,412.5,78.8,412.3,78.6L412.3,78.6z"/>
</svg>
