<?xml version="1.0" encoding="utf-8"?>
<!-- Generator: Adobe Illustrator 26.1.0, SVG Export Plug-In . SVG Version: 6.00 Build 0)  -->
<svg version="1.1" id="Layer_1" xmlns="http://www.w3.org/2000/svg" xmlns:xlink="http://www.w3.org/1999/xlink" x="0px" y="0px"
	 viewBox="0 0 644.5 677" style="enable-background:new 0 0 644.5 677;" xml:space="preserve">
<style type="text/css">
	.st0{fill:#ACABC9;}
	.st1{clip-path:url(#SVGID_00000106842184556520593020000007402348854227368099_);}
	.st2{fill:#00BD26;stroke:#000000;stroke-width:14;stroke-miterlimit:10;}
	.st3{stroke:#000000;stroke-miterlimit:10;}
	.st4{fill:#C68854;stroke:#000000;stroke-miterlimit:10;}
	.st5{fill:#C7FDFF;stroke:#000000;stroke-miterlimit:10;}
	.st6{fill:#E8D5BD;stroke:#000000;stroke-miterlimit:10;}
	.st7{fill:#52BFC1;stroke:#000000;stroke-miterlimit:10;}
	.st8{fill:#F23F6D;stroke:#000000;stroke-miterlimit:10;}
	.st9{fill:#FFCFA0;stroke:#000000;stroke-miterlimit:10;}
	.st10{fill:#BC0C38;}
	.st11{fill:#FFFFFF;}
	.st12{fill:#009C04;}
	.st13{fill:none;stroke:#FFFFFF;stroke-width:14;stroke-miterlimit:10;}
	.st14{opacity:0.82;fill:#2EB6FF;stroke:#000000;stroke-width:6;stroke-miterlimit:10;enable-background:new    ;}
	.st15{font-family:'ChalkboardSE-Bold';}
	.st16{font-size:19.84px;}
	.st17{fill:#52BFC1;stroke:#FFFFFF;stroke-width:4;}
	.st18{fill:#00BD26;stroke:#FFFFFF;stroke-width:4;}
	.st19{fill:#F23F6D;stroke:#FFFFFF;stroke-width:3;}
	.st20{fill:none;stroke:#FFFFFF;stroke-width:8;stroke-miterlimit:10;}
</style>
<circle class="st0" cx="323.4" cy="340.3" r="209.7"/>
<g>
	<defs>
		<circle id="SVGID_1_" cx="323.4" cy="340.3" r="209.7"/>
	</defs>
	<clipPath id="SVGID_00000013914180567273079900000008088178590672587946_">
		<use xlink:href="#SVGID_1_"  style="overflow:visible;"/>
	</clipPath>
	<g style="clip-path:url(#SVGID_00000013914180567273079900000008088178590672587946_);">
		<circle class="st2" cx="298.8" cy="303.4" r="50.2"/>
		<circle class="st2" cx="340.2" cy="325.7" r="50.2"/>
		<circle class="st2" cx="248.5" cy="329.7" r="50.3"/>
		<path class="st3" d="M160.7,417.1c4.1,35,6.4,65,10.5,97.3c3.2,26.8,2.7,58.2,12.3,83.7s31.9,27.3,56,27.8
			c35,0.9,70.5,0.5,106,0.5h50c13.2,0,26.4-0.9,36.9-10c11.4-9.5,20-25.5,23.2-40c5.9-25.9,8.2-53.2,12.3-79.6
			c4.1-25.5,8.2-51,12.3-76c1.4-7.7-5.5-12.7-12.7-9.5c-4.6,1.8-9.3,3.2-14.1,4.1c13.3-37.9,23.2-76.9,29.6-116.5
			c4.1-26.4,11.4-74.1-29.1-75.1c-37.3-0.9-58.7,44.6-72.3,72.3c-5.5,10.9-10.5,22.3-15,33.2c-7.3-5.9-16.4-10.5-20-16.8
			c1.6-1.2,3.3-2.2,5-3.2c2.7-1.8,5-5.9,3.6-9.1c-3.6-10.9-7.7-21.4-11.4-32.3c-1.4-4.5-5-5.9-9.5-5.5
			c-26.4,4.1-50.5,14.6-74.6,25.5c-3.2,1.4-4.6,5.9-3.6,9.1c2.7,10.9,6.4,21.4,9.6,32.3c1.4,4.4,6,7,10.5,5.9c1.4-0.5,3.2-0.9,5-1.4
			c0.9,4.5,0.5,8.2-1.8,13.6c-2.6,6.2-4.6,12.6-5.9,19.1c-6.8-11.4-18.2-20-33.7-23.7c-10.5-2.4-21.4-2.2-31.8,0.5
			c-5.9-6.4-12.7-11.8-20.5-14.6c-8.2-2.7-15.5,9.1-8.6,14.6c3.6,2.7,7.3,5,10.9,7.7l-5.5,4.1c-14.6,12.3-23.2,34.1-15,52.3
			C167.6,408.5,159.8,411.2,160.7,417.1L160.7,417.1z"/>
		<path class="st4" d="M385.9,325.2c6.4-14.5,13.5-28.6,21.4-42.3c8.6-15,19.1-34.1,36.4-40c32.8-11.4,26.4,33.7,20.5,61.4
			c-17.7-3.6-37.8-2.7-52.3,9.1c-5.5,4.5,0.5,11.8,6.4,10.9c15-2.3,27.3-6.4,42.3-3.2v0.9c-1.4,6.8-3.2,13.6-4.5,20.5
			c-18.2-2.7-37.8-1.8-53.7,8.2c-5.5,3.6-2.3,12.3,4.5,10.5c15.5-4.1,30-5.5,45.5-3.6c-2.3,7.7-4.5,15.5-7.3,23.2
			c-18.2-5-42.3-5-55.5,7.3c-3.2,3.2-0.5,7.7,3.2,8.2c9.1,0.5,18.2-1.8,27.3-1.8c6.4,0,12.7,1.4,19.1,2.7c-2.3,6.4-5,12.7-7.3,19.1
			c-15-1.8-30-5.9-44.1-8.2c-10.3-1.4-20.7-1.4-30.9,0C365,379.8,374.1,352.1,385.9,325.2L385.9,325.2z"/>
		<path class="st5" d="M348.6,334.8c4.5,2.7,8.2,6.4,11.8,9.5c-1.8,5-3.6,10-5.5,14.6c-5,5.5-8.6,10-17.3,10.5s-16.8-2.3-25.5-1.8
			c-8.2,0.8-16.1,3.8-22.7,8.6c1-7.9,3-15.7,5.9-23.2c2.7-6.4,5-12.7,3.6-19.6c-0.5-3.2-2.3-5.5-2.7-8.6c-0.1-0.8-0.3-1.5-0.5-2.3
			c1.9-0.4,3.7-1,5.5-1.8c4.1-1.4,24.1-10.5,26.8-8.6c2.3,1.4,3.2,10,5.5,12.7C337.7,329.8,344,332,348.6,334.8L348.6,334.8z"/>
		<path class="st6" d="M346.3,385.3c-2.3,8.2-4.5,16.8-6.8,25.5c-8.2,1.8-16.4,4.1-25,6.4c-6.4,1.9-12.9,3.1-19.6,3.6
			c-2.3-7.3-3.9-14.7-5-22.3c6.8-8.2,14.1-14.6,25.9-14.6c8.2,0,16.4,2.7,24.6,2.3C342.4,386.1,344.4,385.8,346.3,385.3L346.3,385.3
			z"/>
		<path class="st7" d="M277.6,316.6c-1.8-5.5-4.1-10.9-5.5-16.8c18.6-9.1,37.3-16.8,57.8-20.5c1.8,5.9,4.1,11.8,5.9,17.7
			C335.9,297,280.4,307.9,277.6,316.6L277.6,316.6z"/>
		<path class="st8" d="M200.3,368.4c0.4-0.5,0.9-0.5,1.4-0.9c1.4,2.7,2.7,5.5,4.1,8.6c3.2,6.4,14.6,3.6,13.6-3.6
			c-0.3-3.6-1.1-7.1-2.3-10.5c7.4-1.4,15.1-0.9,22.3,1.4c23.7,7.3,30,33.7,23.7,55c-10.9-2.7-21.4-6.8-31.8-10
			c-15-4.1-30.9-7.7-45.9-5.5C185.7,388.9,187.1,377.1,200.3,368.4L200.3,368.4z"/>
		<path class="st9" d="M176.6,424.8c23.2-12.3,54.1,2.7,77.3,9.6c26.4,7.3,49.1,4.5,75.1-2.7c13.2-3.6,26.4-7.7,40-7.7
			c13.2,0,25.9,2.7,39.1,5.5c18.2,3.6,35.5,5.9,52.8,1.8c-6.4,41.4-21.4,136.9-22.7,142.8c-2.1,7.3-5.3,14.2-9.5,20.5
			c-10.9,15-28.2,12.3-44.6,11.8c-30.5-0.9-61.4-0.9-91.9-0.5h-44.6c-11.8,0-35.5,5-43.7-5.9s-8.2-28.7-9.6-41.4
			c-2.3-16.4-4.1-32.3-6.4-48.7c-3.6-28.2-7.3-56.4-11.8-84.2C176.2,424.8,176.2,424.8,176.6,424.8z"/>
		<path class="st10" d="M205.8,397.1c2.9-0.2,5.3-2.5,5.5-5.5c0.1-2.9-2.1-5.3-5-5.5c-0.1,0-0.3,0-0.4,0c-2.9,0.2-5.3,2.5-5.5,5.5
			C200.3,394.6,202.8,397,205.8,397.1z"/>
		<path class="st10" d="M233.1,385.7c2.9-0.2,5.3-2.5,5.5-5.5c0.1-2.9-2.1-5.3-5-5.5c-0.1,0-0.3,0-0.4,0c-2.9,0.2-5.3,2.5-5.4,5.5
			c-0.1,2.9,2.1,5.3,5,5.5C232.8,385.7,232.9,385.7,233.1,385.7z"/>
		<path class="st10" d="M249,402.5c2.9-0.2,5.3-2.5,5.4-5.5c0.1-2.9-2.1-5.3-5-5.5c-0.1,0-0.3,0-0.4,0c-2.9,0.2-5.3,2.5-5.5,5.5
			C243.6,400.1,246,402.5,249,402.5z"/>
		<path class="st11" d="M290.3,398.6L290.3,398.6c0.9-0.2,1.8,0.3,2,1.2l4.1,15.2c0.2,0.9-0.3,1.8-1.2,2h0c-0.9,0.2-1.8-0.3-2-1.2
			l-4.1-15.2C288.9,399.7,289.4,398.8,290.3,398.6z"/>
		<path class="st11" d="M323.8,323L323.8,323c0.3,0.9-0.1,1.8-1,2.1l-14.9,5.4c-0.9,0.3-1.8-0.1-2.1-1l0,0c-0.3-0.9,0.1-1.8,1-2.1
			l14.9-5.4C322.5,321.7,323.5,322.2,323.8,323z"/>
		<path class="st3" d="M203.7,581.5v-2.9c0-0.4,0.3-0.7,0.7-0.7h89.1c0.4,0,0.7,0.3,0.7,0.7v2.9c0,0.4-0.3,0.7-0.7,0.7h-89.1
			C204,582.2,203.7,581.9,203.7,581.5z"/>
		<path class="st3" d="M203.7,570.4v-2.9c0-0.4,0.3-0.7,0.7-0.7h107.1c0.4,0,0.7,0.3,0.7,0.7v2.9c0,0.4-0.3,0.7-0.7,0.7H204.4
			C204,571.2,203.7,570.8,203.7,570.4z"/>
		<path class="st3" d="M203.7,559.4v-2.9c0-0.4,0.3-0.7,0.7-0.7h61.1c0.4,0,0.7,0.3,0.7,0.7v2.9c0,0.4-0.3,0.7-0.7,0.7h-61.1
			C204,560.1,203.7,559.8,203.7,559.4z"/>
		<path class="st3" d="M286.5,559.4v-2.9c0-0.4,0.3-0.7,0.7-0.7h24.3c0.4,0,0.7,0.3,0.7,0.7v2.9c0,0.4-0.3,0.7-0.7,0.7h-24.3
			C286.8,560.1,286.5,559.8,286.5,559.4z"/>
		<path class="st3" d="M203.6,591.9v-2.4c0-0.3,0.3-0.6,0.6-0.6h73.1c0.3,0,0.6,0.3,0.6,0.6v2.4c0,0.3-0.3,0.6-0.6,0.6h-73.1
			C203.9,592.5,203.6,592.2,203.6,591.9z"/>
		<rect x="214.1" y="318" class="st12" width="7.2" height="7.2"/>
		<rect x="233.4" y="298.7" class="st12" width="7.2" height="7.2"/>
		<rect x="249" y="333.6" class="st12" width="7.2" height="7.2"/>
		<rect x="356.9" y="311.8" class="st12" width="7.2" height="7.2"/>
		<rect x="279.2" y="266.6" class="st12" width="7.2" height="7.2"/>
	</g>
</g>
<circle class="st13" cx="323.4" cy="340.3" r="209.7"/>
<circle class="st14" cx="403.3" cy="476.9" r="33.4"/>
<text transform="matrix(1 0 0 1 384.97 470.5854)" class="st11 st15 st16">DBQ</text>
<text transform="matrix(1 0 0 1 381.99 494.3954)" class="st11 st15 st16">M</text>
<text transform="matrix(1 0 0 1 398.85 494.3954)" class="st11 st15 st16">a</text>
<text transform="matrix(1 0 0 1 409.64 494.3954)" class="st11 st15 st16">r</text>
<text transform="matrix(1 0 0 1 418.78 494.3954)" class="st11 st15 st16">t</text>
<path d="M208.1,485.1v-1.6c0-0.4,0.3-0.7,0.7-0.7h62.3c0.4,0,0.7,0.3,0.7,0.7v1.6c0,0.4-0.3,0.7-0.7,0.7h-62.3
	C208.4,485.8,208.1,485.5,208.1,485.1z"/>
<path d="M208.1,477.3v-1.6c0-0.4,0.3-0.7,0.7-0.7h74.9c0.4,0,0.7,0.3,0.7,0.7v1.6c0,0.4-0.3,0.7-0.7,0.7h-74.9
	C208.4,478,208.1,477.7,208.1,477.3z"/>
<path d="M208.1,469.5v-1.6c0-0.4,0.3-0.7,0.7-0.7h42.5c0.4,0,0.7,0.3,0.7,0.7v1.6c0,0.4-0.3,0.7-0.7,0.7h-42.5
	C208.4,470.2,208.1,469.9,208.1,469.5z"/>
<path d="M266.4,469.5v-1.6c0-0.4,0.3-0.7,0.7-0.7h16.7c0.4,0,0.7,0.3,0.7,0.7v1.6c0,0.4-0.3,0.7-0.7,0.7h-16.7
	C266.8,470.2,266.4,469.9,266.4,469.5z"/>
<path d="M208.1,492.4v-1.3c0-0.3,0.3-0.6,0.6-0.6h51.1c0.3,0,0.6,0.3,0.6,0.6v1.3c0,0.3-0.3,0.6-0.6,0.6h-51.1
	C208.4,493,208.1,492.8,208.1,492.4z"/>
<circle class="st13" cx="323.4" cy="340.3" r="310.5"/>
<path class="st17" d="M116.2,227.4c-1.1,1.6-2.5,2.9-4.1,3.8c-1.3,0.9-2.9,1-4.2,0.3L79,216.8c-0.6,1.5-1.5,3-2.5,4.2
	c-0.8,1.1-1.8,2-3,2.8c-0.8,0.6-1.8,0.7-2.7,0.5c-0.8-0.2-1.3-1-1.6-2.4c-0.2-1.7-0.2-3.3,0-5c0.3-1.9,0.6-3.8,1.2-5.6
	c0.5-1.9,1.2-3.8,1.9-5.8s1.5-3.8,2.3-5.6c2.2-4.9,4.8-9.5,7.9-13.9c2.8-4.1,6.1-7.9,9.8-11.2c3.3-3,6.9-5.5,10.9-7.4
	c3.4-1.7,7.2-2.6,11-2.6c2,0,4,0.4,5.9,1.2c1.7,0.7,3.3,1.7,4.8,2.9c1.9,1.5,3.4,3.4,4.4,5.6c1.1,2.3,1.8,4.9,2.1,7.4
	c0.3,2.9,0.2,5.8-0.2,8.7c-0.5,3.2-1.2,6.4-2.2,9.4c-1,3-2.2,5.8-3.6,8.6c-1.4,2.9-2.8,5.8-4.2,8.6c-0.7,1.4-1.4,2.9-2.1,4.6
	c-0.7,1.6-1.5,3.2-2.3,4.6C116.5,227,116.4,227.1,116.2,227.4z M88,194.7c-0.6,1-1.2,2-1.7,2.9s-1,2-1.5,3l26.6,15.8
	c0.2-0.4,0.4-0.7,0.6-1.1c0.1-0.3,0.3-0.6,0.4-0.9c0.2-0.2,0.3-0.5,0.4-0.8c0.5-1,0.9-1.9,1.3-2.5s0.7-1.3,0.9-1.9s0.6-1.2,0.8-1.8
	s0.6-1.4,1-2.2c1.7-3.6,2.8-7.4,3.2-11.3c0.2-3.2-0.4-6.3-1.8-9.1c-0.7-1.6-1.9-3.1-3.3-4.1c-1.5-1-3.2-1.6-4.9-1.8
	c-2.1-0.2-4.1,0.1-6.1,0.9c-2.4,0.9-4.7,2.3-6.7,4c-1.8,1.5-3.4,3.2-4.9,5.1C90.8,190.7,89.3,192.6,88,194.7z"/>
<path class="st17" d="M182,143.7c1.2,0.6,1.9,1.9,1.9,3.2c-0.1,1.3-0.7,2.6-1.5,3.5c-1,1.2-2.3,2.1-3.8,2.7c-1.6,0.7-3.3,0.9-5,0.7
	c-0.8,2-1.9,3.8-3.2,5.5c-1.4,1.8-2.9,3.4-4.5,4.9c-2.4,2.3-5.1,4.4-7.9,6.1c-2.3,1.4-4.9,2.5-7.5,3.1c-2.3,0.5-4.7,0.4-6.9-0.2
	c-2.4-0.8-4.4-2.2-6-4.1c-0.7-0.9-1.3-1.9-1.8-2.9c-0.5-1.1-0.9-2.2-1.3-3.3c-0.4-1.5-0.7-3-0.7-4.5c-0.1-1.6,0-3.3,0.2-4.9
	c1-6.2,3.5-12,7.3-17c1-1.3,2-2.5,3.2-3.7c1.4-1.5,2.9-2.9,4.5-4.1c1.5-1.2,3.2-2.3,4.9-3.3c1.3-0.8,2.8-1.2,4.3-1.3
	c0.8,0,1.5,0.1,2.3,0.3c0.5,0.2,1,0.5,1.3,0.9c0.4,0.4,0.7,0.9,1,1.3c0.3,0.5,0.8,1.1,1.3,1.8c0.9,1.1,1.7,2.3,2.5,3.4
	s1.7,2.2,2.5,3.3c0.3,0.4,0.6,0.9,1.1,1.4s0.9,1.2,1.5,1.8s1.1,1.2,1.6,1.7c0.4,0.5,0.9,0.8,1.5,1.1
	C177.6,142.2,179.1,142.7,182,143.7z M161.2,155.7c0.4-0.7,0.9-1.7,1.4-2.8c0.5-1,0.9-2,1.2-3c-2.2-1.6-4.3-3.5-6.2-5.5
	c-1.8-2-3.6-4.1-5.3-6.4c-2.4,2.5-4.3,5.5-5.4,8.8c-1,2.6-1.3,5.5-0.6,8.2c0.2,1,0.6,1.9,1,2.8c0.4,0.8,0.9,1.6,1.6,2.2
	c0.8,0.8,1.9,1.2,3.1,1.2c1.2,0,2.4-0.3,3.4-0.8c1.2-0.5,2.3-1.2,3.2-2C159.7,157.7,160.6,156.8,161.2,155.7L161.2,155.7z"/>
<path class="st17" d="M165.1,103.6c-0.8-1.7-0.6-3.8,0.5-5.3c1.1-1.8,2.6-3.2,4.4-4.3c1.7-1.1,3.7-1.7,5.7-1.8
	c1.7-0.2,3.4,0.6,4.4,2c1,1.4,1,3.2,0.1,4.6c-2.1,3.5-5.6,5.9-9.6,6.6c-1.8,0.4-3.7-0.1-5.1-1.4L165.1,103.6z M201.6,132.6
	c0.4,1,0.4,2.1,0.1,3.1c-0.3,1.1-0.9,2.1-1.6,3c-0.8,0.9-1.8,1.6-2.9,2.1c-1.2,0.5-2.5,0.6-3.8,0.4c-0.7-0.1-1.4-0.4-2-0.8
	c-0.6-0.4-1.1-0.9-1.5-1.4c-0.4-0.5-0.8-1.1-1.2-1.7c-0.4-0.6-0.7-1.1-1-1.6c-1.7-2.5-3.4-5-5-7.5s-3.3-5-5-7.5
	c-0.7-1-1.5-2-2.4-2.9c-0.9-0.9-1.5-2.1-1.8-3.3c-0.2-1.1,0-2.2,0.5-3.2c0.5-1.1,1.3-2.2,2.2-3c1-0.9,2.1-1.6,3.3-2.2
	c1.2-0.5,2.6-0.6,3.9-0.4c1.6,0.3,2.7,0.8,3.2,1.6l1.8,3.2l2.6,4.5c0.9,1.5,1.8,3,2.7,4.4c1.3,2.1,2.6,4.2,3.8,6.4l3.7,6.4
	L201.6,132.6z"/>
<path class="st17" d="M225.6,117.7c0.9,0.1,1.8,0.5,2.6,1c0.7,0.4,1.3,1.1,1.7,1.9c0.3,0.7,0.4,1.6,0.2,2.3c-0.4,1-1.1,1.9-2,2.6
	c-0.9,0.7-2,1.2-3.1,1.5c-1.2,0.4-2.5,0.6-3.8,0.7c-1.2,0.1-2.5,0.1-3.7-0.1c-1-0.1-2-0.5-2.8-1c-0.3-0.2-0.5-0.4-0.7-0.6
	c-0.2-0.2-0.4-0.5-0.5-0.8l-19.3-38.1c-0.5-1-0.3-2.3,0.7-3.7c1-1.4,2.3-2.6,3.9-3.5c0.8-0.5,1.7-0.8,2.6-1c1-0.2,1.9-0.3,2.9-0.3
	c0.8,0,1.7,0.1,2.5,0.4c0.6,0.2,1.1,0.6,1.4,1.2c0.5,1.2,1.3,2.8,2.1,4.9s1.9,4.2,3,6.6s2.2,4.9,3.3,7.4s2.2,5,3.2,7.4
	s1.9,4.5,2.8,6.5s1.5,3.5,2,4.7L225.6,117.7z"/>
<path class="st17" d="M264.8,74.8c0.7-1.2,1.8-2.2,3.1-2.8c1.3-0.6,2.7-1,4.2-1.1c1.4-0.1,2.7,0.2,4,0.7c1.1,0.4,2,1.3,2.5,2.5
	c0.3,1.2,0.2,2.5-0.1,3.8c-0.4,1.8-1,3.5-1.6,5.3c-0.7,1.8-1.3,3.6-2,5.3s-1.2,3-1.6,4c-1.7,4.3-3.6,8.5-5.6,12.8
	c-2,4.2-3.8,8.5-5.7,12.7c-0.2,0.7-0.5,1.4-0.8,2.4s-0.6,1.9-0.9,2.9s-0.6,1.9-1,2.9c-0.7,2-2.2,3.7-4.2,4.6c-1,0.5-2.2,0.7-3.4,0.7
	c-1.1,0-2.1-0.4-3-1c-0.9-0.6-1.6-1.6-1.8-2.7c-0.1-0.7,0-1.4,0.2-2c0.2-0.9,0.5-1.8,0.8-2.7s0.7-1.9,1-2.7s0.6-1.6,0.8-2.1
	c0.8-2,1.6-4,2.3-6c0.8-2,1.6-4,2.4-6c-5.1-1.3-10.2-3-15-5.2c-4.4-1.9-8.5-4.6-12.1-7.8l-1.9-1.6c-0.6-0.5-1-1.2-1.1-2
	c-0.2-0.9-0.1-1.8,0.2-2.6c0.4-0.9,0.9-1.8,1.6-2.4c0.8-0.8,1.8-1.4,2.9-1.8c1.2-0.5,2.5-0.8,3.8-0.8c1,0,2,0.2,2.9,0.6
	c0.8,0.4,1.5,0.9,2.1,1.5c0.6,0.6,1.2,1.2,1.7,1.8c0.5,0.6,1,1.2,1.6,1.7c5,4.1,10.9,7,17.1,8.6c1.3-3.5,2.5-7,3.5-10.4
	c1-3.4,1.9-6.9,2.6-10.3L264.8,74.8z"/>
<path class="st18" d="M339,104.9c-3-0.4-4.8-1.2-5.4-2.5c-0.6-1.3-0.6-2.8,0.1-4c0.4-10.4,0.9-20.8,1.3-31.2c-1.2,0-2.4-0.3-3.4-0.8
	c-0.9-0.4-1.7-1-2.4-1.7c-0.6-0.6-0.9-1.4-0.9-2.2c0.1-0.8,0.5-1.6,1.2-2.1c1.9-1.6,4.1-2.8,6.6-3.4c2.8-0.8,5.6-1.3,8.4-1.7
	c4.5-0.6,9.1-0.6,13.6-0.2c4.5,0.4,8.9,1.6,13.1,3.6c3.2,1.4,6.1,3.4,8.4,6c1.7,1.8,2.7,4,3,6.5c0.1,2.2-0.7,4.3-2.1,5.9
	c-1.9,2.1-4.3,3.7-7,4.7c3.3,2.2,5.5,4.5,6.5,6.9c1,2.1,1.1,4.6,0.4,6.8c-0.9,2.3-2.4,4.3-4.5,5.7c-2.4,1.8-5.2,3.2-8.1,4
	c-2.1,0.6-4.3,1-6.5,1.1c-2.4,0.1-4.9,0.1-7.4,0s-5-0.3-7.4-0.5s-4.7-0.5-6.7-0.7L339,104.9z M349.2,74.2c1.4,0.1,2.8,0.3,4.3,0.4
	c1.4,0.2,2.8,0.2,4.2,0.2c1.4,0,2.8-0.1,4.1-0.3c1.3-0.2,2.6-0.6,3.8-1.2c1.7-0.8,2.4-1.9,2.2-3.1s-1.3-2.4-3-3.4
	c-2.2-1.2-4.5-2-7-2.3c-2.5-0.3-5-0.4-7.5-0.2C349.9,68.3,349.7,70.3,349.2,74.2L349.2,74.2z M364.4,88.1c-1.2-0.8-2.4-1.5-3.7-2
	c-1.2-0.5-2.5-0.9-3.8-1.1c-1.3-0.3-2.7-0.5-4-0.6c-1.4-0.1-2.9-0.2-4.5-0.3c-0.5,4.9-0.7,7.4-1.2,12.3c1.6,0.2,3.3,0.3,5.1,0.4
	c1.8,0.1,3.5,0.1,5.3,0c1.6-0.1,3.3-0.3,4.9-0.7c1.4-0.3,2.8-1,3.9-2c0.4-1,0.6-2.1,0.4-3.2C366.6,90.1,365.8,89,364.4,88.1
	L364.4,88.1z"/>
<path class="st18" d="M395.2,88.5c0.2-0.6,0.4-1.2,0.4-1.8c-1-0.6-1.8-1.5-2.4-2.5c-0.5-0.8-0.7-1.6-0.6-2.5
	c0.1-0.9,0.6-1.6,1.3-2.1c1-0.7,2.2-1,3.4-1.1c2.1-0.1,4.2,0.3,6,1.3c1.8,0.9,3.5,2.1,4.9,3.5c2.2-0.3,4.5-0.4,6.8-0.3
	c2.3,0.1,4.6,0.4,6.8,1c2.3,0.6,4.4,1.5,6.5,2.6c2.1,1.2,4,2.7,5.7,4.5c0.8,0.9,1.6,1.8,2.2,2.9c0.5,0.9,0.8,1.9,0.7,2.9
	c-0.1,1.2-0.8,2.3-1.8,2.8c-1.1,0.6-2.3,0.8-3.6,0.7c-1.4-0.1-2.8-0.6-4-1.3c-1.4-0.8-2.6-1.9-3.5-3.2c-0.3-0.3-0.5-0.5-0.7-0.8
	c-0.3-0.4-0.6-0.7-1-0.9c-1.1-0.7-2.3-1.1-3.5-1.2c-1.3-0.1-2.5-0.1-3.8,0c-1.2,0.1-2.4,0.3-3.6,0.6c-1.1,0.3-2.2,0.6-3,0.8
	c-2.5,7.4-3.8,11.2-6.4,18.6c-0.3,0.7-0.7,1.4-1.3,1.9c-1,0.9-2.3,1.4-3.6,1.4c-1.4,0-2.7-0.3-4-0.9c-1.2-0.5-2.2-1.4-3-2.5
	c-0.7-1-1-2.3-0.6-3.4c2.3-8.3,3.5-12.5,5.9-20.8C395,88.9,395,88.8,395.2,88.5z"/>
<path class="st18" d="M465.1,135.5c1.5,0.6,2.9,1.6,4,2.7c0.8,0.8,1.5,1.9,1.8,3c0.2,0.9,0,1.9-0.6,2.6c-0.9,0.9-2.1,1.3-3.4,1.4
	c-1.5,0.1-3.1-0.1-4.5-0.5c-1.7-0.5-3.3-0.9-4.7-1.4c-3.2-1.1-6.4-2.4-9.5-3.8c-2.7-1.2-5.2-2.7-7.6-4.4c-2.2-1.6-4.1-3.5-5.7-5.6
	c-1.7-2.2-3-4.7-3.9-7.3c-0.7-1.8-1-3.7-0.9-5.7c0.1-1.9,0.5-3.7,1.2-5.4c0.7-1.7,1.7-3.3,3-4.7c1.2-1.4,2.6-2.5,4.2-3.4
	c2.5-1.2,5.2-1.7,8-1.6c3.6,0,7.1,0.6,10.5,1.5c3.7,1,7.2,2.5,10.6,4.4c3.1,1.7,5.8,3.8,8.1,6.5c1.6,1.8,2.7,3.9,3.5,6.1
	c0.6,1.8,0.8,3.8,0.4,5.7c-0.4,1.6-1.3,3-2.7,4c-1.7,1.1-3.7,1.6-5.7,1.4c-2.4-0.1-4.7-0.4-7-1c-2.4-0.6-4.7-1.3-7.1-2.1
	c-2.4-0.8-4.7-1.6-7.1-2.5c-2.4-0.9-4.7-1.7-7-2.3c0.8,1.8,2,3.4,3.5,4.6c1.6,1.3,3.4,2.4,5.3,3.3c2,1,4.1,1.8,6.3,2.4
	c2.2,0.7,4.4,1.2,6.4,1.7L465.1,135.5z M452.2,112c-3.2-0.8-6.5,0.5-8.3,3.1c2,0.6,4.1,1.2,6.6,2.1s4.7,1.6,6.9,2.3
	c1.9,0.6,3.8,1.2,5.8,1.6c1.6,0.3,2.7,0.2,3.1-0.4c0.2-0.4,0.4-0.8,0.4-1.2c0-0.5-0.2-1-0.6-1.4c-1.6-1.7-3.6-3-5.8-3.9
	c-1.9-0.8-3.8-1.5-5.8-1.9L452.2,112z"/>
<path class="st18" d="M508.6,184.2c-0.5,1.2-1.7,2.1-3,2.1c-1.4,0-2.7-0.5-3.7-1.3c-1.3-1-2.3-2.2-3.1-3.6c-0.8-1.5-1.3-3.3-1.2-5
	c-2.1-0.7-4-1.6-5.9-2.8c-1.9-1.2-3.6-2.6-5.3-4.1c-2.5-2.2-4.8-4.7-6.8-7.4c-1.6-2.2-2.9-4.6-3.7-7.2c-0.7-2.2-0.8-4.6-0.3-6.9
	c0.9-3.5,3.2-6.6,6.4-8.4c1-0.6,2-1.1,3.1-1.6c1.4-0.6,2.9-0.9,4.4-1.1c1.6-0.3,3.2-0.4,4.9-0.3c6.2,0.4,12.2,2.3,17.4,5.7
	c1.4,0.9,2.7,1.8,4,2.9c1.6,1.3,3.1,2.7,4.6,4.2c1.4,1.5,2.7,3.1,3.8,4.7c0.9,1.3,1.5,2.7,1.7,4.3c0.1,0.8,0,1.6-0.1,2.3
	c-0.1,0.5-0.3,1-0.7,1.4c-0.4,0.4-0.8,0.8-1.2,1.1c-0.5,0.4-1,0.8-1.7,1.4c-1.1,1-2.1,1.9-3.2,2.8s-2.1,1.9-3,2.8
	c-0.3,0.3-0.8,0.7-1.3,1.2s-1.1,1-1.7,1.7s-1.1,1.2-1.6,1.8c-0.4,0.5-0.8,1-1,1.6C509.6,179.6,509.3,181.1,508.6,184.2z
	 M494.5,163.9c0.8,0.4,1.8,0.7,2.9,1.2c1,0.4,2,0.8,3.1,1c1.4-2.4,3.1-4.6,4.9-6.7c1.8-2,3.8-4,5.9-5.8c-2.7-2.2-5.8-3.9-9.2-4.8
	c-2.7-0.8-5.6-0.8-8.2,0.1c-0.9,0.3-1.8,0.8-2.7,1.2c-0.8,0.5-1.5,1.1-2,1.8c-0.7,0.9-1,2-0.9,3.1c0.1,1.2,0.5,2.3,1,3.4
	c0.6,1.1,1.4,2.2,2.3,3.1C492.4,162.6,493.4,163.4,494.5,163.9z"/>
<path class="st18" d="M545.5,236.8c-0.7,1.9-1.8,2.9-3,3c-1.3,0.1-2.6-0.4-3.6-1.4c-1.3-1.2-2.2-2.6-2.9-4.2c-0.8-1.9-1.1-4-0.9-6
	c-1.7-1.3-3.2-2.7-4.7-4.3c-1.4-1.6-2.9-3.2-4.4-5c-2.2-2.6-4-5.5-5.3-8.6c-1.2-2.8-2-5.7-2.5-8.7c-0.4-2.6-0.2-5.3,0.4-7.9
	c0.6-2.3,1.8-4.4,3.5-6c1.8-1.7,4-3,6.4-3.8c2.5-0.8,5.1-0.9,7.7-0.5c3.1,0.5,6,1.7,8.6,3.5c3.4,2.2,6.4,5,8.9,8.2
	c1.7,2.1,3.3,4.4,4.7,6.8c1.4,2.4,2.7,4.9,3.8,7.4c0.9-0.6,2-1.3,3.3-2.1s2.5-1.5,3.7-2.1c1.1-0.6,2.2-1.1,3.4-1.6
	c0.8-0.3,1.6-0.5,2.4-0.5c1.3,0.2,2.4,0.8,3.3,1.7c1.1,1,2,2.3,2.8,3.6c0.7,1.4,1.3,2.9,1.5,4.4c0.3,1.4,0.2,2.8-0.2,4.1
	c-0.1,0.3-0.3,0.7-0.3,1c0,0.3-0.2,0.6-0.5,0.7c-6,2.9-12,5.9-18,8.7s-15.4,5.6-18,8.6C545.6,236.1,545.5,236.4,545.5,236.8z
	 M541.2,219.3c0.3,0.1,0.6,0.4,0.9,0.6c0.3,0.3,0.7,0.4,0.9,0.3l5.5-3.1c1.8-1,3.7-2.1,5.5-3.2c-0.8-2.1-1.8-4.1-2.8-6
	c-1.1-1.9-2.3-3.8-3.7-5.5c-1.3-1.6-2.8-2.9-4.4-4.1c-1.4-1-3.1-1.6-4.8-1.8c-1.1,0.1-2.2,0.3-3.2,0.5c-1,0.2-1.9,0.5-2.7,1.1
	c-0.8,0.5-1.5,1.2-1.9,2c-0.6,1-0.9,2.1-1,3.2c0,0.4,0.1,0.9,0.1,1.3c0.1,1,0.3,1.9,0.6,2.8c0.9,2.4,3.1,4.9,5,7
	C536.7,216.4,538.8,218.1,541.2,219.3L541.2,219.3z"/>
<path class="st19" d="M87.7,484.4c0.4,1.4,0.5,2.8,0.2,4.2c-0.2,1.6-1.7,2.8-3.3,2.6c-0.5-0.1-0.9-0.2-1.3-0.5
	c-1.5-0.9-2.8-2.1-3.7-3.6c-1.1-1.6-1.9-3.4-2.6-5.2c-0.8-2.1-1.5-4.3-2-6.5c-0.6-2.2-1-4.4-1.3-6.4s-0.5-3.7-0.6-5.1
	c-1.6-1.6-3.2-3.4-4.7-5.3c-1.6-2.1-3.1-4.3-4.3-6.7c-1-1.6-1.8-3.3-2.5-5.1c-0.6-1.8-1.2-3.5-1.6-5c-1.5-4.5-2.3-9.2-2.6-14
	c-0.3-4,0.3-8,1.8-11.7c1.3-3.4,3.5-6.3,6.4-8.5c2.7-1.9,5.8-3.1,9.1-3.5c3.5-0.3,7,0,10.3,1.1c3.7,1.2,7.2,3.1,10.2,5.6
	c3.6,2.8,6.8,6.2,9.4,10c2.8,3.9,5.2,8.2,7.1,12.6c1.8,4.2,3.1,8.7,3.8,13.3c0.7,4.1,0.4,8.3-0.9,12.2c-1,2.9-2.5,5.5-4.6,7.7
	c-2,2.2-4.4,3.9-7.1,5c-2.8,1.2-5.9,1.8-8.9,1.8c-3.4,0-6.7-0.7-9.8-2.1c0.4,2.2,0.9,4.3,1.5,6.5C86.1,480,87,482.3,87.7,484.4z
	 M84.5,446.3c0.3,2,0.3,3.9-0.1,5.9c-0.4,2.1-0.7,4.1-0.9,6c2.1,0.8,4.3,1.3,6.6,1.3c2.1,0,4.2-0.2,6.2-0.6l2.6-1.5
	c0.9-0.5,1.7-1.1,2.5-1.8c0.8-0.7,1.5-1.5,2.1-2.3c0.7-0.9,1.1-2,1.3-3.1c0.5-2.2,0.6-4.4,0.2-6.6c-0.4-2.5-1-5-1.9-7.3
	c-0.9-2.4-2.1-4.7-3.6-6.8c-1.4-2-3.1-3.9-5-5.4c-2.9-2.3-6.3-3.9-9.9-4.8c-3-0.7-6.1-0.5-9,0.6c-1.6,0.6-3.1,1.6-4.3,2.9
	c-1.4,1.4-2.4,3.1-3,4.9c-0.7,2.2-1,4.6-0.9,6.9c0.2,3,0.9,6,2.1,8.8c0.8,2.2,1.9,4.2,3.1,6.2c0.2-2.1,0.5-4.2,1-6.3
	c0.2-1.7,1-3.2,2.2-4.4c0.6-0.5,1.5-0.7,2.3-0.5c1,0.3,1.8,0.8,2.6,1.5c0.9,0.8,1.7,1.7,2.3,2.8C83.8,443.8,84.3,445,84.5,446.3
	L84.5,446.3z"/>
<path class="st19" d="M133.1,531.3c0.1,0.9-0.1,1.8-0.6,2.5c-0.5,0.7-1.2,1.2-2,1.5c-0.9,0.3-1.9,0.2-2.9-0.1
	c-1.3-0.5-2.4-1.2-3.3-2.2c-1.3-1.2-2.2-2.8-2.7-4.5c-0.4-1.5-0.6-2.9-0.7-4.4c-3.3-1.2-6.3-2.8-9.1-4.9c-2.7-2.1-5-4.5-6.9-7.3
	c-1.8-2.7-3.2-5.6-4-8.8c-0.8-2.9-0.9-6-0.3-9c0.5-2.5,1.7-4.8,3.7-6.5c1.9-1.6,3.8-3.1,5.6-4.4c0.6-0.4,1.3-0.9,1.9-1.3l2-1.2
	c0.5-0.3,1.1-0.6,1.6-1c0.5-0.3,1-0.6,1.5-0.9c0.5-0.2,1.1-0.4,1.7-0.4c0.7,0,1.4,0.1,2.1,0.3c1.1,0.4,2.1,1,2.8,1.9
	c0.8,0.9,1.5,1.9,2,3c0.5,1,0.7,2.1,0.8,3.2c0.1,0.9-0.2,1.8-0.8,2.5c-1.8,1.7-3.8,3.3-6,4.6c-2.1,1.3-4,2.9-5.7,4.8
	c-0.9,1-1.5,2.2-1.8,3.4c-0.4,1.6-0.2,3.3,0.6,4.8c0.8,1.7,2.1,3.2,3.7,4.2c1.4,0.9,2.9,1.6,4.6,2c0.7,0.1,1.3,0.3,2,0.3
	c0.7,0.1,1.4,0.2,2,0.4c1-1.4,2.1-2.7,3.3-3.9c1.2-1.2,2.5-2.4,3.7-3.5c0.7-0.6,1.4-1.3,2.3-2c0.9-0.7,1.8-1.2,2.9-1.5
	c1.1-0.3,2.2-0.4,3.4-0.3c1.4,0.3,2.7,0.9,3.8,1.9c0.6,0.5,1.1,1.1,1.5,1.7c0.4,0.6,0.7,1.3,0.9,2c0.3,0.9,0.4,1.9,0.1,2.8
	c-0.2,0.8-0.7,1.5-1.2,2.1c-0.6,0.6-1.2,1.2-1.9,1.6c-0.7,0.5-1.3,0.9-1.9,1.5c-1,0.9-2.1,1.8-3.2,2.9c-1.1,1-2.1,2.2-2.9,3.4
	c-0.9,1.3-1.5,2.6-2,4.1C133,528,132.9,529.7,133.1,531.3z"/>
<path class="st19" d="M164.1,508.3c1.2-1.1,2.9-1.6,4.6-1.3c1.6,0.3,3.1,1,4.3,2c1.2,1,2.1,2.3,2.6,3.8c0.5,1.4,0.3,3-0.6,4.3
	c-0.8,1.3-2.2,2-3.8,1.9c-3.4-0.3-6.3-2.4-7.7-5.5c-0.7-1.5-0.5-3.2,0.3-4.6L164.1,508.3z M149.1,549.6c-0.8,0.7-1.8,1.1-2.9,1
	c-1.2,0-2.5-0.3-3.6-0.8c-1.2-0.6-2.4-1.4-3.3-2.4c-1-1-1.6-2.3-1.9-3.7c-0.2-0.7-0.2-1.4,0-2.2c0.2-0.6,0.5-1.2,0.8-1.8
	c0.4-0.5,0.8-1.1,1.2-1.5c0.5-0.5,0.9-0.9,1.2-1.3c1.8-2.2,3.7-4.4,5.5-6.5s3.7-4.3,5.5-6.5c0.8-0.9,1.5-1.9,2.1-2.9
	c0.6-1,1.5-1.9,2.6-2.5c0.9-0.4,1.9-0.6,2.9-0.5c1.1,0.1,2.1,0.4,3.1,0.9c1,0.5,1.9,1.2,2.7,2.1c0.8,0.9,1.2,1.9,1.4,3.1
	c0.3,1.1,0.2,2.3-0.4,3.3l-2.1,2.7c-1,1.3-2,2.6-3,3.9s-2,2.6-2.9,3.9c-1.4,1.9-2.8,3.8-4.2,5.6l-4.3,5.5L149.1,549.6z"/>
<path class="st19" d="M200,580.8c-0.8,1-2,1.7-3.3,1.8c-1.5,0.2-3,0-4.4-0.5c-1.4-0.5-2.7-1.3-3.8-2.3c-1-0.9-1.6-2.3-1.5-3.7
	c0-1.5,0.5-2.9,1.3-4.1c0.8-1.1,1.5-2.3,2.2-3.5c1.3-2.3,2.5-4.6,3.8-6.8c1.3-2.3,2.4-4.7,3.3-7.1c0-0.1,0-0.2-0.1-0.3
	c-0.1-0.2-0.1-0.3-0.2-0.5c-1.4-1.1-3-1.9-4.7-2.4c-1.6-0.5-3.3-0.8-5-0.9c-1.4,0-2.9,0.1-4.3,0.4c-1.2,0.1-2.4,0.8-3.1,1.8
	c-2.1,3.4-3.2,5.1-5.3,8.5c-0.4,0.7-0.8,1.4-1.3,2.2c-0.4,0.8-0.9,1.5-1.6,2.2c-0.7,0.7-1.5,1.1-2.4,1.3c-1.3,0.2-2.6,0-3.8-0.5
	c-0.8-0.3-1.5-0.7-2.2-1.2c-0.7-0.5-1.3-1.1-1.8-1.7c-0.9-0.8-1.5-1.8-1.7-3c-0.1-0.9-0.1-1.8,0.2-2.6c0.2-0.8,0.6-1.5,1.1-2.1
	c0.5-0.6,0.8-1.1,1.1-1.4c0.6-0.9,1.6-2.2,2.7-4s2.4-3.6,3.8-5.5l3.8-5.5l2.8-4c0.6-0.9,1.6-1.4,2.7-1.4c1.2-0.1,2.4,0.2,3.4,0.7
	c1.2,0.5,2.3,1.3,3.2,2.2c0.9,0.9,1.6,2.2,1.8,3.5c3.2,0.5,6.3,1.3,9.2,2.5c2.9,1.2,5.7,2.8,8.1,4.7c2.2,1.7,3.9,3.8,5.1,6.2
	c1.1,2.3,1.1,5-0.1,7.3c0,0.1-0.1,0.4-0.3,0.8c-0.2,0.6-0.5,1.3-0.8,1.9L200,580.8z"/>
<path class="st19" d="M221.9,566c-1.1-0.7-2.1-1.5-2.9-2.5c-0.6-0.8-1-1.7-1.1-2.7c0-0.9,0.3-1.7,1-2.2c1-0.7,2.1-1,3.3-1
	c1.3-0.1,2.6,0.1,3.8,0.6c1.3,0.5,2.5,1,3.8,1.5c0.1-0.3,0.4-1,0.7-2.1s0.8-2.2,1.3-3.5c0.5-1.2,1.1-2.4,1.8-3.5
	c0.4-0.9,1.1-1.6,2-2c1.6-0.8,3.6-0.8,5.2-0.1c1.7,0.6,3,1.9,3.8,3.5c0.2,0.3,0.3,0.7,0.4,1.1c0.1,0.3,0.1,0.7,0,1
	c-0.5,1.6-1,3.3-1.6,5s-1.2,3.3-1.7,4.9c3.1,1,4.7,1.5,7.8,2.4c1.1,0.3,2.1,0.9,2.8,1.7c0.6,0.7,1.1,1.5,1.3,2.5
	c0.2,0.8,0,1.7-0.4,2.4c-0.5,0.8-1.3,1.3-2.1,1.4c-1.9,0.4-4,0.4-5.9-0.2c-2.1-0.6-4.2-1.2-6.4-2c-0.9,2.5-1.7,5-2.6,7.5
	s-1.7,5.1-2.5,7.6c-0.4,1.1-0.7,2.3-0.9,3.5c-0.2,1.2-0.7,2.3-1.5,3.2c-0.7,0.7-1.6,1.2-2.6,1.3c-1.1,0.2-2.2,0.1-3.3-0.1
	c-1.2-0.3-2.3-0.8-3.4-1.4c-1.1-0.6-2.1-1.4-2.9-2.3c-0.4-0.6-0.6-1.3-0.5-2.1c0.1-0.9,0.2-1.8,0.5-2.6c0.3-1,0.8-2.1,1.3-3.2
	c0.4-0.9,0.8-2.1,1.4-3.5s1.2-3,1.7-4.5s1.2-3,1.7-4.4s1-2.5,1.3-3.3C224.6,567.1,223.7,566.8,221.9,566z"/>
<path class="st19" d="M289.8,598.2c1.6-0.1,3.2,0.1,4.8,0.5c1.1,0.3,2.2,0.8,3.1,1.6c0.7,0.6,1,1.5,0.8,2.4
	c-0.3,1.2-1.1,2.1-2.2,2.7c-1.3,0.8-2.8,1.4-4.4,1.7c-1.7,0.4-3.4,0.6-5.1,0.8c-3.7,0.4-7.3,0.5-11,0.3c-3.2-0.2-6.4-0.7-9.5-1.7
	c-2.8-0.9-5.4-2.1-7.8-3.8c-2.3-1.6-4.4-3.7-6-6c-1.1-1.5-1.8-3.3-2.1-5.2c-0.2-1.7-0.2-3.5,0.2-5.2c0.4-1.7,1.1-3.3,2-4.8
	c0.9-1.4,2-2.8,3.3-3.9c2-1.5,4.3-2.6,6.7-3.1c3-0.8,6-1.3,9.1-1.4c3.2-0.2,6.4-0.1,9.6,0.3c2.9,0.3,5.7,1.1,8.3,2.3
	c1.9,0.9,3.5,2.1,5,3.5c1.2,1.2,2.2,2.8,2.6,4.5c0.4,1.5,0.3,3.1-0.3,4.5c-0.8,1.7-2.3,3-4,3.8c-2,1-4.2,1.8-6.4,2.2
	c-2.4,0.5-4.7,0.8-7.1,1c-2.5,0.2-5,0.2-7.5,0.2c-2.5-0.1-5-0.1-7.4-0.1c1.3,1.5,3,2.6,4.9,3.2c2,0.7,4.2,1.1,6.3,1.3
	c2.3,0.2,4.6,0.1,6.9-0.2c2.2-0.3,4.4-0.6,6.5-1.2L289.8,598.2z M269.9,582.4c-1.5,0.2-2.9,0.7-4.1,1.6c-1.1,0.9-2,2.1-2.6,3.5
	c2,0,4.1,0.1,6.5,0.1s4.7,0,6.9-0.1c1.9-0.1,3.7-0.3,5.5-0.7c1.5-0.4,2.3-0.9,2.4-1.5c0.1-0.4,0-0.8-0.1-1.2c-0.2-0.4-0.5-0.8-1-0.9
	c-1.9-0.8-4-1.2-6.1-1.3c-1.8-0.1-3.7,0-5.5,0.3L269.9,582.4z"/>
<path class="st19" d="M304.3,604.4c-0.4-0.8-0.5-1.6-0.4-2.5c0.1-0.8,0.5-1.5,1.1-2.1c0.7-0.7,1.6-1.1,2.5-1.4
	c1.2-0.3,2.5-0.4,3.8-0.2c0.8,0.1,1.5,0.2,2.2,0.5c0.6,0.3,1.2,0.6,1.8,0.9c0.5,0.3,1.1,0.7,1.7,1.1c0.5,0.4,1.1,0.7,1.7,1
	c1.3,0.7,2.7,1.1,4.1,1.4c1.5,0.3,3,0.5,4.6,0.6c0.9,0,1.8-0.2,2.5-0.6c0.6-0.3,1-0.7,1.3-1.3c0.2-0.5,0.3-1,0.1-1.6
	c-0.1-0.5-0.4-1-0.9-1.3c-1.4-0.8-3-1.4-4.7-1.5c-1.8-0.2-3.5-0.5-5.1-0.9c-2.2-0.5-4.4-1.2-6.5-2c-1.9-0.7-3.6-1.8-5-3.3
	c-1.2-1.2-2-2.8-2.2-4.4c-0.2-1.5,0.1-3.1,0.8-4.4c0.8-1.5,1.9-2.8,3.2-3.8c1.5-1.2,3.2-2.1,5.1-2.8c1.5-0.5,3.1-0.9,4.7-1
	c1.7-0.2,3.4-0.2,5.2-0.1c1.7,0.1,3.5,0.3,5.2,0.6c1.7,0.3,3.3,0.6,4.8,1c1.4,0.3,2.8,1,3.9,2c0.8,0.7,1.3,1.8,1.4,2.9
	c0,1-0.5,2-1.3,2.7c-1.2,0.9-2.7,1.3-4.1,1.3c-1,0.1-2.1,0-3.1-0.3c-0.9-0.2-1.9-0.5-2.9-0.7c-1.4-0.3-2.7-0.5-4.1-0.6
	c-1.2-0.1-2.4-0.1-3.6,0.2c-0.4,0.1-0.7,0.2-1,0.5c-0.4,0.3-0.6,0.6-0.8,1c-0.2,0.4-0.2,0.8-0.1,1.2c0.1,0.4,0.5,0.7,1.1,1
	c1.8,0.7,3.6,1.1,5.5,1.4c2,0.3,3.9,0.7,5.8,1c1.8,0.3,3.6,0.8,5.3,1.4c1.6,0.6,3.1,1.5,4.3,2.7c1.6,1.4,2.6,3.4,2.9,5.6
	c0.2,2-0.3,4-1.5,5.7c-1.4,2-3.3,3.7-5.5,4.8c-2.8,1.4-5.8,2.3-8.9,2.5c-2.4,0.2-4.8,0.1-7.2-0.2c-2.3-0.3-4.6-0.9-6.8-1.6
	c-2.1-0.7-4.1-1.6-6-2.7c-1.7-0.9-3.2-2.1-4.7-3.3C304.5,604.7,304.4,604.6,304.3,604.4z"/>
<path class="st19" d="M351.1,603.7c-0.5-0.7-0.8-1.5-0.8-2.4c0-0.8,0.3-1.6,0.7-2.2c0.6-0.8,1.4-1.4,2.2-1.8
	c1.2-0.5,2.5-0.8,3.7-0.8c0.8-0.1,1.5,0,2.3,0.2c0.7,0.1,1.4,0.4,2,0.6c0.6,0.3,1.2,0.5,1.8,0.8c0.6,0.3,1.2,0.6,1.9,0.8
	c1.4,0.4,2.8,0.7,4.3,0.8c1.5,0.1,3.1,0,4.6-0.1c0.9-0.1,1.7-0.5,2.4-1c0.5-0.4,0.9-0.9,1-1.5c0.1-0.5,0.1-1.1-0.1-1.6
	c-0.2-0.5-0.6-0.9-1.1-1.2c-1.5-0.6-3.2-0.9-4.9-0.8c-1.7,0.1-3.4,0.1-5.1,0c-2.3-0.1-4.5-0.4-6.7-0.9c-2-0.4-3.9-1.2-5.5-2.5
	c-1.4-1-2.4-2.4-2.9-4c-0.4-1.5-0.4-3,0-4.5c0.5-1.6,1.4-3.1,2.5-4.3c1.3-1.4,2.8-2.6,4.5-3.6c1.4-0.8,2.9-1.4,4.5-1.8
	c1.7-0.4,3.4-0.7,5.1-0.9c1.7-0.2,3.5-0.3,5.2-0.2c1.8,0,3.4,0.1,4.9,0.2c1.5,0.1,2.9,0.6,4.1,1.4c0.9,0.6,1.6,1.5,1.9,2.6
	c0.2,1-0.1,2.1-0.9,2.8c-1,1.1-2.4,1.8-3.9,2c-1,0.2-2.1,0.3-3.1,0.2c-1-0.1-2-0.1-3-0.2c-1.4-0.1-2.8-0.1-4.2,0
	c-1.2,0.1-2.4,0.3-3.5,0.8c-0.3,0.1-0.6,0.3-0.9,0.6c-0.3,0.3-0.5,0.7-0.6,1.1c-0.1,0.4-0.1,0.8,0.1,1.2c0.3,0.4,0.7,0.7,1.3,0.8
	c1.9,0.4,3.8,0.5,5.7,0.5c2,0,3.9,0,5.9,0.1c1.9,0.1,3.7,0.3,5.5,0.6c1.7,0.3,3.3,0.9,4.7,1.9c1.8,1.2,3.2,2.9,3.8,5
	c0.5,2,0.4,4-0.5,5.9c-1,2.2-2.6,4.2-4.6,5.6c-2.5,1.9-5.4,3.2-8.4,3.9c-2.3,0.6-4.7,0.9-7.1,1c-4.5,0.1-9-0.7-13.3-2.3
	c-1.8-0.7-3.5-1.5-5.1-2.5L351.1,603.7z"/>
<path class="st19" d="M437.1,576.5c1.3-0.9,2.8-1.6,4.4-2c1.1-0.3,2.4-0.4,3.5-0.1c0.9,0.2,1.7,0.8,2,1.7c0.3,1.2,0.1,2.4-0.5,3.5
	c-0.7,1.4-1.7,2.6-2.9,3.7c-1.3,1.2-2.6,2.3-4,3.3c-3,2.2-6.1,4.1-9.4,5.8c-2.9,1.5-6,2.6-9.1,3.3c-2.8,0.7-5.8,0.9-8.7,0.7
	c-2.9-0.2-5.7-1-8.3-2.2c-1.7-0.8-3.3-1.9-4.5-3.4c-1.1-1.4-2-2.9-2.5-4.6c-0.5-1.7-0.8-3.4-0.8-5.1c0-1.7,0.3-3.4,0.8-5
	c0.9-2.3,2.3-4.4,4.1-6.1c2.2-2.2,4.5-4.1,7.1-5.8c2.7-1.8,5.5-3.3,8.5-4.6c2.7-1.2,5.5-2,8.4-2.3c2.1-0.2,4.1,0,6.1,0.5
	c1.7,0.4,3.3,1.3,4.6,2.5c1.1,1.1,1.9,2.5,2.1,4c0.2,1.9-0.4,3.7-1.5,5.3c-1.2,1.9-2.7,3.6-4.4,5.1c-1.8,1.6-3.7,3.1-5.7,4.4
	c-2.1,1.4-4.2,2.7-6.4,3.9c-2.2,1.2-4.4,2.4-6.5,3.6c1.9,0.6,3.9,0.7,5.9,0.3c2.1-0.4,4.2-1.1,6.1-2.1c2.1-1,4-2.2,5.9-3.6
	c1.8-1.3,3.5-2.8,5.1-4.3L437.1,576.5z M411.6,573.1c-2.5,1.7-3.7,4.7-3.1,7.7l5.7-3.2c2.1-1.2,4-2.4,5.9-3.6c1.6-1,3-2.2,4.4-3.4
	c1.1-1.1,1.5-1.9,1.3-2.6c-0.2-0.4-0.4-0.7-0.7-0.9c-0.4-0.3-0.9-0.4-1.3-0.3c-2.1,0.3-4.1,1-5.9,2c-1.6,0.8-3.2,1.9-4.6,3
	C412.6,572.3,412.3,572.5,411.6,573.1z"/>
<path class="st19" d="M494.4,552.3c0.5,1.2,0.5,2.5,0,3.7c-0.6,1.4-1.4,2.6-2.5,3.6c-1.1,1-2.4,1.8-3.9,2.3c-1.3,0.4-2.8,0.3-4-0.4
	c-1.3-0.7-2.4-1.8-3.1-3.1c-0.6-1.2-1.3-2.4-2.1-3.5c-1.5-2.2-2.9-4.3-4.3-6.5c-1.4-2.2-3-4.3-4.8-6.2l-0.3-0.1c-0.2,0-0.4,0-0.5,0
	c-1.6,0.7-3.1,1.8-4.3,3.1c-1.2,1.2-2.3,2.5-3.2,3.9c-0.7,1.3-1.2,2.6-1.6,4c-0.4,1.2-0.4,2.5,0.1,3.6l5.1,8.7
	c0.4,0.7,0.9,1.4,1.4,2.1c0.5,0.7,0.9,1.5,1.2,2.4c0.3,0.9,0.3,1.8,0,2.8c-0.4,1.2-1.2,2.3-2.2,3.1c-0.6,0.5-1.3,1-2,1.4
	c-0.7,0.3-1.5,0.6-2.3,0.8c-1.1,0.4-2.3,0.4-3.4,0.1c-0.8-0.3-1.6-0.8-2.2-1.4c-0.5-0.6-1-1.2-1.3-1.9c-0.3-0.7-0.6-1.2-0.8-1.6
	c-0.5-1-1.3-2.4-2.3-4.3s-2.1-3.8-3.1-5.9l-3.1-5.9c-1-1.9-1.7-3.3-2.2-4.3c-0.5-0.9-0.5-2.1,0-3c0.5-1.1,1.2-2,2.2-2.7
	c1-0.8,2.2-1.4,3.5-1.7c1.3-0.4,2.6-0.4,3.9,0c1.9-2.6,4.1-4.9,6.6-6.9c2.4-2,5.1-3.7,8.1-5c2.5-1.1,5.2-1.7,8-1.6
	c2.6,0.1,5,1.4,6.5,3.4c0.1,0.1,0.3,0.3,0.6,0.6c0.5,0.5,0.9,1,1.3,1.6C487.6,543.3,489.9,546.3,494.4,552.3z"/>
<path class="st19" d="M491.6,526c-1.1,0.7-2.4,1.2-3.7,1.4c-1,0.2-2,0.1-3-0.2c-0.8-0.3-1.3-1-1.5-1.9c-0.2-1.2,0.1-2.4,0.6-3.4
	c0.5-1.2,1.4-2.3,2.4-3.1c1.1-0.9,2.1-1.8,3.1-2.7c-0.2-0.3-0.7-0.8-1.5-1.6s-1.6-1.8-2.5-2.8c-0.8-1-1.6-2.1-2.3-3.2
	c-0.6-0.8-0.9-1.7-0.9-2.7c0.1-1.9,1-3.6,2.4-4.8c1.4-1.2,3.2-1.9,5-1.9c0.4,0,0.8,0,1.2,0.1c0.3,0.1,0.7,0.2,0.9,0.4
	c1.2,1.2,2.5,2.5,3.7,3.7s2.4,2.6,3.6,3.8c2.4-2.4,3.6-3.6,6-6c0.8-0.9,1.8-1.5,2.9-1.8c0.9-0.3,1.9-0.3,2.9-0.1
	c0.8,0.2,1.5,0.7,2,1.4c0.5,0.8,0.6,1.8,0.3,2.7c-0.6,2-1.6,3.8-3.1,5.3c-1.5,1.7-3.2,3.3-4.9,5c1.9,1.9,3.7,3.9,5.5,5.8
	c1.8,2,3.7,3.9,5.6,5.7c0.8,0.9,1.7,1.6,2.7,2.4c1,0.7,1.7,1.7,2.1,2.8c0.3,0.9,0.3,2,0,2.9c-0.4,1.1-1,2.1-1.7,3
	c-0.8,0.9-1.8,1.8-2.9,2.4c-1.1,0.7-2.3,1.2-3.5,1.5c-0.7,0.1-1.5-0.1-2.1-0.5c-0.8-0.5-1.5-1-2.1-1.6c-0.8-0.8-1.5-1.7-2.2-2.6
	c-0.6-0.7-1.5-1.7-2.5-2.9s-2.1-2.4-3.2-3.6s-2.2-2.4-3.2-3.6s-1.8-2-2.3-2.7C493.9,524.1,493.1,524.7,491.6,526z"/>
<path class="st19" d="M506.2,484.6c-1.1-1.3-1.6-3-1.3-4.6c0.3-1.6,1-3.2,2-4.4c1-1.3,2.4-2.2,3.9-2.8c1.4-0.6,3-0.4,4.3,0.5
	c1.3,0.8,2.1,2.3,1.9,3.8c-0.2,1.7-0.8,3.3-1.8,4.7c-1,1.4-2.4,2.6-4,3.3c-1.5,0.7-3.2,0.6-4.7-0.2L506.2,484.6z M547.6,499.2
	c0.7,0.8,1.1,1.9,1,3c0,1.3-0.3,2.6-0.8,3.7c-0.6,1.3-1.4,2.5-2.5,3.4c-1.1,1-2.4,1.7-3.8,2c-0.7,0.2-1.5,0.2-2.2,0
	c-0.6-0.2-1.2-0.4-1.8-0.8c-0.5-0.4-1.1-0.8-1.5-1.2c-0.5-0.5-0.9-0.9-1.3-1.2c-2.2-1.8-4.4-3.7-6.5-5.5s-4.3-3.7-6.5-5.5
	c-0.9-0.8-1.9-1.5-2.9-2.1c-1-0.6-1.9-1.5-2.5-2.6c-0.4-0.9-0.6-2-0.5-3c0.1-1.1,0.5-2.2,1-3.2c0.5-1,1.3-2,2.2-2.8
	c0.9-0.8,2-1.3,3.1-1.5c1.1-0.4,2.3-0.2,3.3,0.4l2.7,2.1l3.9,3c1.3,1,2.6,2,3.9,2.9c1.9,1.3,3.8,2.8,5.6,4.2l5.5,4.3L547.6,499.2z"
	/>
<path class="st19" d="M580.6,440.5c1.3-0.2,2.6,0.5,3,1.8c0.4,1.5,0.4,3.1,0,4.5c-0.5,1.9-1.3,3.6-2.5,5.1c-1.1,1.6-2.6,2.9-4.4,3.7
	c-0.2,2.5-0.6,5-1.4,7.4c-0.8,2.5-1.9,5-3.2,7.3c-1.8,3.5-4.1,6.8-6.8,9.7c-2,2.3-4.4,4.2-7.1,5.6c-2.1,1.1-4.5,1.6-6.9,1.4
	c-2.3-0.3-4.5-1.4-6.2-3c-0.8-0.8-1.4-1.6-2-2.6c-0.6-1-1.1-1.9-1.6-3c-0.6-1.3-1-2.7-1.3-4.1c-0.4-1.5-0.6-3.1-0.7-4.6
	c-0.3-5.8,0.5-11.5,2.3-17c0.3-1.1,0.8-2.4,1.6-4.1c0.7-1.7,1.5-3.4,2.4-5.1c0.9-1.6,1.8-3.2,2.9-4.7c0.8-1.2,1.8-2.2,3.1-2.9
	c0.6-0.3,1.3-0.6,2-0.7c0.5-0.1,1-0.1,1.5,0.1c0.5,0.2,1,0.4,1.4,0.7c0.5,0.3,1.1,0.6,1.8,1c1.2,0.6,2.4,1.2,3.5,1.8
	s2.4,1.1,3.5,1.6c0.4,0.2,0.9,0.4,1.5,0.7c0.6,0.3,1.3,0.6,2,0.8c0.7,0.3,1.4,0.5,2.1,0.7c0.6,0.2,1.2,0.2,1.8,0.2
	C576.1,441.9,577.6,441.4,580.6,440.5z M565.5,463.7c0.2-0.9,0.3-2.1,0.5-3.4c0.2-1.2,0.3-2.3,0.3-3.5c-2.6-0.5-5-1.4-7.4-2.5
	c-2.3-1.1-4.6-2.4-6.8-3.8c-1.3,3.1-2.1,6.5-2.3,9.9c-0.3,2.7,0.2,5.5,1.4,8c0.4,0.8,0.9,1.6,1.5,2.4c0.5,0.7,1.2,1.3,2,1.7
	c1,0.5,2.1,0.6,3.2,0.2c1.2-0.4,2.3-1.1,3.2-1.9c1-1,1.9-2.1,2.7-3.3C564.6,466.4,565.1,465.1,565.5,463.7z"/>
<path class="st19" d="M589.6,413.3c0.7-0.8,1.6-1.4,2.5-1.9c0.8-0.4,1.6-0.5,2.5-0.4c0.8,0.2,1.4,0.8,1.7,1.6c0.4,1.3,0.5,2.7,0.2,4
	c-0.3,1.5-0.7,3-1.4,4.5c-0.7,1.5-1.5,3-2.5,4.4c-0.9,1.3-1.9,2.4-3,3.5c-0.8,0.8-1.8,1.4-2.8,1.8c-0.3,0.1-0.6,0.1-0.9,0.1
	c-0.3,0-0.6-0.1-0.8-0.2l-37.3-15c-1.1-0.6-1.9-1.7-1.9-2.9c-0.2-1.6-0.2-3.1,0.3-4.6c0.2-0.8,0.6-1.6,1-2.3c0.5-0.8,1-1.4,1.6-2.1
	c0.5-0.6,1.1-1,1.8-1.4c0.5-0.3,1.1-0.4,1.7-0.2l4.7,1.6c2,0.7,4.1,1.4,6.5,2.1s4.8,1.5,7.3,2.4s4.9,1.7,7.2,2.5s4.4,1.5,6.3,2.2
	s3.4,1.2,4.5,1.7L589.6,413.3z"/>
<circle class="st20" cx="61.8" cy="323.5" r="21"/>
<circle class="st20" cx="580.9" cy="323.5" r="21"/>
</svg>
