<?xml version="1.0" encoding="utf-8"?>
<!-- Generator: Adobe Illustrator 26.1.0, SVG Export Plug-In . SVG Version: 6.00 Build 0)  -->
<svg version="1.1" id="Layer_1" xmlns="http://www.w3.org/2000/svg" xmlns:xlink="http://www.w3.org/1999/xlink" x="0px" y="0px"
	 viewBox="0 0 700 700" style="enable-background:new 0 0 700 700;" xml:space="preserve">
<g>
	<path d="M220.6,268.8c12.7-0.4,24.7-5.7,33.5-14.9c17.1-17.1,19.8-42,6.2-55.7c-13.6-13.7-38.6-10.9-55.7,6.2
		c-17.1,17-19.8,42-6.2,55.7C204.3,265.9,212.3,269,220.6,268.8z M217,216.8L217,216.8c5.5-5.8,13.1-9.4,21.1-9.8
		c3.6-0.2,7.2,1.2,9.9,3.6c6.7,6.7,3.9,20.9-6.2,30.9s-24.2,12.9-30.9,6.2C204.1,241.1,206.9,226.9,217,216.8L217,216.8z"/>
	<path d="M137.1,322.5l0.2,0.2v0c1.9,1.8,3.9,3.5,5.9,5l148.9,124.8c17.1,14.5,38.1,23.6,60.3,26.1c22.3,2.5,44.8-1.6,64.7-11.9
		l47.8,47.8h0c-7.4,11.1-9.4,25-5.4,37.7c4.1,12.7,13.7,22.9,26.2,27.6c12.5,4.7,26.4,3.5,37.9-3.3c11.5-6.8,19.2-18.5,21-31.8
		c13.2-1.8,24.8-9.6,31.5-21c6.8-11.4,8-25.3,3.3-37.8c-4.7-12.4-14.8-22-27.5-26.1c-12.6-4.1-26.5-2.2-37.5,5.2l-47.8-47.9v0
		c10.3-19.9,14.4-42.4,11.9-64.6c-2.5-22.2-11.6-43.2-26-60.3L328.3,143.6c-1.3-1.8-2.7-3.5-4.3-5.1l-1.3-1.6
		c-0.2-0.2-0.3-0.4-0.5-0.6c-17.1-17-42.9-22.9-72.8-16.4c-31.2,7.7-59.6,24.1-81.9,47.3c-23.2,22.3-39.6,50.7-47.3,81.9
		c-6.5,29.9-0.7,55.7,16.4,72.8C136.7,322.2,136.9,322.4,137.1,322.5L137.1,322.5z M507.8,482.9L507.8,482.9
		c1.6,1.6,3.9,2.6,6.2,2.6c2.3,0,4.6-0.9,6.2-2.6c5-4.8,11.6-7.5,18.5-7.5c6.9,0,13.6,2.7,18.5,7.5c5.1,5,7.9,12,7.7,19.1
		c-0.2,7.2-3.2,13.9-8.6,18.8c-5.3,4.8-12.4,7.2-19.5,6.7c-2.5-0.2-5,0.8-6.7,2.5c-1.8,1.8-2.7,4.2-2.5,6.7c0.6,7.5-2.2,15-7.5,20.3
		c-5,4.8-11.6,7.5-18.5,7.5c-6.9,0-13.6-2.7-18.5-7.5c-4.9-4.9-7.7-11.6-7.7-18.5s2.8-13.6,7.7-18.5c1.6-1.6,2.6-3.9,2.6-6.2
		c0-2.3-0.9-4.6-2.6-6.2l-50.6-50.5c9.6-6.8,18-15.2,24.8-24.8L507.8,482.9z M439.3,303.3c20.8,24.8,27.8,58.5,18.5,89.6
		c-9.3,31.1-33.6,55.4-64.7,64.7c-31.1,9.3-64.7,2.4-89.6-18.5L186,340.7h0.3c33.3,0,72.7-17.4,104.9-49.6
		c32.2-32.2,49.7-71.8,49.6-105.2L439.3,303.3z M137.3,252.9c7-27.9,21.8-53.3,42.6-73.2c19.9-20.8,45.3-35.6,73.2-42.6
		c6.3-1.4,12.7-2.1,19.2-2.2c13.8-0.6,27.3,4.3,37.4,13.7l5,6c20.4,29.1,5.6,82.6-35.8,124c-41.4,41.4-94.9,56.2-124,35.8l-6-5
		C136.2,296.8,132.1,276.7,137.3,252.9L137.3,252.9z"/>
	<path d="M152.4,381l11.2-13.4l107.2,89.8l-11.2,13.4L152.4,381z"/>
	<path d="M507.6,320.7c-1.9-6.1-4.2-12-6.9-17.8l-15.9,7.4v0c2.4,5.1,4.4,10.3,6.1,15.7L507.6,320.7z"/>
	<path d="M475.7,293.9l14.7-9.6c-3.3-5.1-7-10-10.9-14.7L359.2,126l-13.4,11.2l120.3,143.6C469.5,285,472.8,289.4,475.7,293.9
		L475.7,293.9z"/>
</g>
</svg>
