<?xml version="1.0" encoding="utf-8"?>
<!-- Generator: Adobe Illustrator 26.1.0, SVG Export Plug-In . SVG Version: 6.00 Build 0)  -->
<svg version="1.1"
	 id="svg3779" xmlns:cc="http://creativecommons.org/ns#" xmlns:dc="http://purl.org/dc/elements/1.1/" xmlns:rdf="http://www.w3.org/1999/02/22-rdf-syntax-ns#" xmlns:svg="http://www.w3.org/2000/svg"
	 xmlns="http://www.w3.org/2000/svg" xmlns:xlink="http://www.w3.org/1999/xlink" x="0px" y="0px" viewBox="0 0 588.3 650.3"
	 style="enable-background:new 0 0 588.3 650.3;" xml:space="preserve">
<style type="text/css">
	.st0{fill:#CCCCCF;}
	.st1{fill:url(#rect4312_00000026853612753702399330000002029047062682084235_);}
	.st2{fill:url(#rect4330_00000024697778869558410500000012857499523193410960_);}
	.st3{fill:#D40000;}
	.st4{fill:url(#rect4474_00000166639568335587037130000006427555705100359838_);}
	.st5{fill:url(#rect4476_00000106107767744828051090000017135316082329672611_);}
	.st6{fill:url(#rect4480_00000070109501682593272930000013235932212169213372_);}
	.st7{fill:url(#rect4484_00000117644359104928870250000016359879285828978878_);}
	.st8{fill:url(#rect4422_00000098198813098594553020000002942420155020520101_);}
	.st9{fill:url(#rect4424_00000006666476769519090650000008801364478611849390_);}
	.st10{fill:url(#rect4597_00000006700402091785070970000001112098996211861166_);}
	.st11{fill:#AAAAAA;}
</style>
<rect id="rect4636" x="183.9" y="92.1" class="st0" width="13.7" height="31.1"/>
<rect id="rect4638" x="386.7" y="92.1" class="st0" width="13.7" height="31.1"/>
<g id="g4430" transform="translate(0 -1.1517)">
	
		<linearGradient id="rect4312_00000150813609643905107300000008206670611503288766_" gradientUnits="userSpaceOnUse" x1="262.1768" y1="135.707" x2="262.1768" y2="90.9171" gradientTransform="matrix(1.5281 0 0 -1.5281 -106.473 833.6687)">
		<stop  offset="0" style="stop-color:#888888"/>
		<stop  offset="1" style="stop-color:#333333"/>
	</linearGradient>
	
		<rect id="rect4312" x="0" y="625.1" style="fill:url(#rect4312_00000150813609643905107300000008206670611503288766_);" width="588.3" height="26.1"/>
	
		<linearGradient id="rect4330_00000133502988912912198300000015512692991899561889_" gradientUnits="userSpaceOnUse" x1="80.4837" y1="136.1727" x2="431.862" y2="140.374" gradientTransform="matrix(1.4725 0 0 -1.312 -98.483 819.4025)">
		<stop  offset="0" style="stop-color:#EEEEEE"/>
		<stop  offset="1" style="stop-color:#EEEEEE;stop-opacity:0"/>
	</linearGradient>
	
		<rect id="rect4330" x="10.2" y="632.5" style="fill:url(#rect4330_00000133502988912912198300000015512692991899561889_);" width="562" height="10.7"/>
</g>
<g id="g4567" transform="matrix(1 0 0 .78241 0 78.293)">
	<path id="rect4486" class="st3" d="M518.4,79.8v231.5c0,15,12.1,27.1,27.1,27.1h11.7c15,0,27.1-12.1,27.1-27.1v-15L518.4,79.8
		L518.4,79.8z"/>
	<g id="g4557">
		<path id="rect4470" class="st3" d="M130.8,75.2v236c0,15,12.1,27.1,27.1,27.1h11.7c15,0,27.1-12.1,27.1-27.1v-236H130.8
			L130.8,75.2z"/>
		
			<linearGradient id="rect4474_00000005226100586282822120000008186378507912912527_" gradientUnits="userSpaceOnUse" x1="120.0505" y1="341.8177" x2="122.1505" y2="463.1577" gradientTransform="matrix(1.658 0 0 -1.3358 -102.3474 774.8187)">
			<stop  offset="0" style="stop-color:#E9E9EA"/>
			<stop  offset="1" style="stop-color:#FFFFFF"/>
		</linearGradient>
		<path id="rect4474" style="fill:url(#rect4474_00000005226100586282822120000008186378507912912527_);" d="M65.8,75.2v236
			c0,15,12.1,27.1,27.1,27.1h11.7c15,0,27.1-12.1,27.1-27.1v-236H65.8L65.8,75.2z"/>
		
			<linearGradient id="rect4476_00000125585596156122098170000015145668515215764105_" gradientUnits="userSpaceOnUse" x1="198.3503" y1="340.0857" x2="200.4503" y2="461.4257" gradientTransform="matrix(1.658 0 0 -1.3358 -102.3474 773.8362)">
			<stop  offset="0" style="stop-color:#E9E9EA"/>
			<stop  offset="1" style="stop-color:#FFFFFF"/>
		</linearGradient>
		<path id="rect4476" style="fill:url(#rect4476_00000125585596156122098170000015145668515215764105_);" d="M195.7,75.2v236
			c0,15,12.1,27.1,27.1,27.1h11.7c15,0,27.1-12.1,27.1-27.1v-236H195.7L195.7,75.2z"/>
		<path id="rect4478" class="st3" d="M259.7,75.2v236c0,15,12.1,27.1,27.1,27.1h11.7c15,0,27.1-12.1,27.1-27.1v-236H259.7
			L259.7,75.2z"/>
		
			<linearGradient id="rect4480_00000155865207392554315450000015148488960250521246_" gradientUnits="userSpaceOnUse" x1="276.6303" y1="338.3541" x2="278.7303" y2="459.6941" gradientTransform="matrix(1.658 0 0 -1.3358 -102.3474 774.8187)">
			<stop  offset="0" style="stop-color:#E9E9EA"/>
			<stop  offset="1" style="stop-color:#FFFFFF"/>
		</linearGradient>
		<path id="rect4480" style="fill:url(#rect4480_00000155865207392554315450000015148488960250521246_);" d="M325.5,75.2v236
			c0,15,12.1,27.1,27.1,27.1h11.7c15,0,27.1-12.1,27.1-27.1v-236H325.5L325.5,75.2z"/>
		<path id="rect4482" class="st3" d="M389.1,75.2v236c0,15,12.1,27.1,27.1,27.1h11.7c15,0,27.1-12.1,27.1-27.1v-236H389.1
			L389.1,75.2z"/>
		
			<linearGradient id="rect4484_00000030465507748819421950000007904243299576434560_" gradientUnits="userSpaceOnUse" x1="354.3454" y1="336.6351" x2="356.4454" y2="457.9751" gradientTransform="matrix(1.658 0 0 -1.3358 -102.3474 772.8521)">
			<stop  offset="0" style="stop-color:#E9E9EA"/>
			<stop  offset="1" style="stop-color:#FFFFFF"/>
		</linearGradient>
		<path id="rect4484" style="fill:url(#rect4484_00000030465507748819421950000007904243299576434560_);" d="M454.4,75.2v236
			c0,15,12.1,27.1,27.1,27.1h11.7c15,0,27-12.1,27-27.1v-236H454.4L454.4,75.2z"/>
		<path id="rect4490" class="st3" d="M64.1,75.2L0,283.3v28c0,15,12.1,27.1,27.1,27.1h11.7c15,0,27.1-12.1,27.1-27.1v-236L64.1,75.2
			L64.1,75.2z"/>
	</g>
</g>
<linearGradient id="rect4422_00000065038692508527540330000008143758624011773846_" gradientUnits="userSpaceOnUse" x1="285.5174" y1="126.1985" x2="285.5174" y2="81.4085" gradientTransform="matrix(1.2314 0 0 -1.7465 -59.638 333.5083)">
	<stop  offset="0" style="stop-color:#888888"/>
	<stop  offset="1" style="stop-color:#333333"/>
</linearGradient>
<rect id="rect4422" x="62.3" y="111.6" style="fill:url(#rect4422_00000065038692508527540330000008143758624011773846_);" width="459.3" height="29.9"/>
<linearGradient id="rect4424_00000119102813159507048100000014755149682970846907_" gradientUnits="userSpaceOnUse" x1="104.657" y1="118.0789" x2="443.997" y2="118.0789" gradientTransform="matrix(1.1787 0 0 -1.7465 -50.779 332.2705)">
	<stop  offset="0" style="stop-color:#AAAAAA"/>
	<stop  offset="0.4804" style="stop-color:#EDEDED"/>
	<stop  offset="1" style="stop-color:#EEEEEE;stop-opacity:0"/>
</linearGradient>
<rect id="rect4424" x="72.6" y="118.9" style="fill:url(#rect4424_00000119102813159507048100000014755149682970846907_);" width="435.8" height="14.2"/>
<path id="rect4595" class="st3" d="M165.5,0h267c9.8,0,17.7,7.9,17.7,17.7v67.9c0,9.8-7.9,17.7-17.7,17.7h-267
	c-9.8,0-17.7-7.9-17.7-17.7V17.7C147.8,7.9,155.7,0,165.5,0z"/>
<linearGradient id="rect4597_00000104673198296408210500000007326297955153740980_" gradientUnits="userSpaceOnUse" x1="265.3298" y1="540.7357" x2="265.3298" y2="481.2887" gradientTransform="matrix(1.5281 0 0 -1.5281 -106.473 832.517)">
	<stop  offset="0" style="stop-color:#DADADB"/>
	<stop  offset="1" style="stop-color:#FFFFFF"/>
</linearGradient>
<path id="rect4597" style="fill:url(#rect4597_00000104673198296408210500000007326297955153740980_);" d="M173,6.2h252
	c9.8,0,17.7,7.9,17.7,17.7v55.4c0,9.8-7.9,17.7-17.7,17.7H173c-9.8,0-17.7-7.9-17.7-17.7V23.9C155.3,14.2,163.2,6.2,173,6.2z"/>
<g id="text4613" transform="matrix(1.123 0 -.18928 .89048 8.2722 110.75)">
	<path id="path4618" class="st11" d="M192.1-55.2c0,4.3-1.6,7.7-4.9,10.3c-2.4,1.8-5.1,2.8-8.2,2.8c-1.4,0-2.9-0.2-4.6-0.6
		c-4.4-1.1-8.3-3.6-11.9-7.6c-0.8-0.9-1.2-2-1.2-3.3c0-2.7,1.3-4.3,4-4.6c2.2-0.3,4.4,1,6.6,4c1.4,2,3.5,2.9,6.1,2.9
		c2.6,0,4.1-1,4.5-3c0.3-2-1.2-4.1-4.4-6.5c-0.3-0.2-2.7-1.8-7.3-4.6c-5.7-3.5-8.6-7.3-8.6-11.5c0-3.8,1.5-6.8,4.6-9.2
		c2.9-2.2,6.2-3.3,10.1-3.3c3.8,0,7.4,1,11,3.1c1.7,1,2.5,2.4,2.5,4.4c0,2.9-1.5,4.4-4.6,4.4c-0.5,0-1.9-0.4-4.2-1.3
		c-2.3-1-4.2-1.4-5.9-1.4c-2.4,0-3.7,1.1-3.7,3.4c0,2.1,2.4,4.2,7.2,6.2C187.8-67.4,192.1-62.1,192.1-55.2"/>
	<path id="path4620" class="st11" d="M240.3-70.7c0.4,8.9-0.6,16.9-2.9,24c-0.7,2.3-2.3,3.4-4.6,3.4c-1.4,0-2.7-0.5-3.8-1.4
		c-1-1-1.5-2.1-1.5-3.4c0-0.6,0.1-1.3,0.3-2.2c1.7-6.5,2.4-13.4,2.1-20.7c-0.1-4.4-1.8-6.5-4.9-6.5c-2.9,0-7,5.1-12.2,15.3v11.7
		c0,1.5-0.5,2.8-1.4,3.8c-1,0.9-2.2,1.3-3.8,1.3c-1.5,0-2.7-0.5-3.7-1.4c-1-1-1.4-2.2-1.4-3.7v-51.8c0-1.9,0.7-3.6,2.1-5.1
		c1.4-1.5,3.1-2.2,4.9-2.2c2.2,0,3.3,1.3,3.3,3.8v27.6c4.6-5.8,9.1-8.7,13.4-8.7c3.9,0,7.2,1.8,10.1,5.5
		C238.8-78.3,240.1-74.7,240.3-70.7"/>
	<path id="path4622" class="st11" d="M284.5-68.9c0,6.3-1.6,12-4.7,17.3c-3.6,6.1-8.4,9.1-14.3,9.1c-1.1,0-2.2-0.1-3.3-0.4
		c-4.3-0.9-7.5-3.2-9.7-7.1c-2-3.3-2.9-7.4-2.9-12.1c0-6.3,1.6-12,4.7-17.2c3.7-6.1,8.5-9.1,14.3-9.1c1.1,0,2.2,0.1,3.3,0.4
		c4.3,0.9,7.5,3.2,9.7,7.1C283.5-77.6,284.5-73.6,284.5-68.9 M274.3-68.5c0-1.8-0.4-3.6-1.1-5.5c-0.9-2.3-2.1-3.6-3.6-3.9
		c-2.2-0.5-4.3,0.8-6.3,3.8c-1.6,2.3-2.7,4.7-3.2,7.2c-0.3,1.4-0.4,2.9-0.4,4.5c0,1.8,0.4,3.6,1.1,5.5c0.9,2.3,2.1,3.6,3.6,3.9
		c1.5,0.3,3.1-0.4,4.9-2c2.3-2,3.8-5,4.6-9C274.2-65.5,274.3-66.9,274.3-68.5"/>
	<path id="path4624" class="st11" d="M328.5-70.4c0,6.7-2.6,12.1-7.7,16c-4.5,3.5-10.3,5.5-17.4,6.1v17.7c0,1.5-0.5,2.7-1.5,3.7
		c-1,1-2.2,1.4-3.7,1.4c-1.5,0-2.7-0.5-3.7-1.4c-1-1-1.4-2.2-1.4-3.7v-54c0-1.5,0.4-2.7,1.3-3.7c1-1,2.2-1.5,3.7-1.5
		c2.7-0.1,4.4,1.1,5,3.6c3.2-2.6,6.5-3.8,9.7-3.8c4.6,0,8.5,2.2,11.5,6.5C327.1-79.6,328.5-75.2,328.5-70.4 M318.3-72.4
		c-0.1-1.7-0.6-3.2-1.6-4.6c-1-1.4-2.3-2.1-3.9-2.1c-3,0-6.1,2.4-9.4,7.2v13.1C313.6-59.7,318.6-64.3,318.3-72.4"/>
</g>
<g id="g4626" transform="matrix(1.123 0 -.18928 .89048 9.4937 111.16)">
	<path id="path4628" class="st3" d="M192.7-54.9c0,4.3-1.6,7.7-4.9,10.3c-2.4,1.8-5.1,2.8-8.2,2.8c-1.4,0-2.9-0.2-4.6-0.6
		c-4.4-1.1-8.3-3.6-11.9-7.6c-0.8-0.9-1.2-2-1.2-3.3c0-2.7,1.3-4.3,4-4.6c2.2-0.3,4.4,1,6.6,4c1.4,2,3.5,2.9,6.1,2.9
		c2.6,0,4.1-1,4.5-3c0.3-2-1.2-4.1-4.4-6.5c-0.3-0.2-2.7-1.8-7.3-4.6c-5.7-3.5-8.6-7.3-8.6-11.5c0-3.8,1.5-6.8,4.6-9.2
		c2.9-2.2,6.2-3.3,10.1-3.3c3.8,0,7.4,1,11,3.1c1.7,1,2.5,2.4,2.5,4.4c0,2.9-1.5,4.4-4.6,4.4c-0.5,0-1.9-0.4-4.2-1.3
		c-2.3-1-4.2-1.4-5.9-1.4c-2.4,0-3.7,1.1-3.7,3.4c0,2.1,2.4,4.2,7.2,6.2C188.4-67.1,192.7-61.9,192.7-54.9"/>
	<path id="path4630" class="st3" d="M240.9-70.5c0.4,8.9-0.6,16.9-2.9,24c-0.7,2.3-2.3,3.4-4.6,3.4c-1.4,0-2.7-0.5-3.8-1.4
		c-1-1-1.5-2.1-1.5-3.4c0-0.6,0.1-1.3,0.3-2.2c1.7-6.5,2.4-13.4,2.1-20.7c-0.1-4.4-1.8-6.5-4.9-6.5c-2.9,0-7,5.1-12.2,15.3v11.7
		c0,1.5-0.5,2.8-1.4,3.8c-1,0.9-2.2,1.3-3.8,1.3c-1.5,0-2.7-0.5-3.7-1.4c-1-1-1.4-2.2-1.4-3.7v-51.8c0-1.9,0.7-3.6,2.1-5.1
		c1.4-1.5,3.1-2.2,4.9-2.2c2.2,0,3.3,1.3,3.3,3.8v27.6c4.6-5.8,9.1-8.7,13.4-8.7c3.9,0,7.2,1.8,10.1,5.5
		C239.4-78.1,240.8-74.4,240.9-70.5"/>
	<path id="path4632" class="st3" d="M285.1-68.7c0,6.3-1.6,12-4.7,17.3c-3.6,6.1-8.4,9.1-14.3,9.1c-1.1,0-2.2-0.1-3.3-0.4
		c-4.3-0.9-7.5-3.2-9.7-7.1c-2-3.3-2.9-7.4-2.9-12.1c0-6.3,1.6-12,4.7-17.2c3.7-6.1,8.5-9.1,14.3-9.1c1.1,0,2.2,0.1,3.3,0.4
		c4.3,0.9,7.5,3.2,9.7,7.1C284.1-77.4,285.1-73.4,285.1-68.7 M274.9-68.2c0-1.8-0.4-3.6-1.1-5.5c-0.9-2.3-2.1-3.6-3.6-3.9
		c-2.2-0.5-4.3,0.8-6.3,3.8c-1.6,2.3-2.7,4.7-3.2,7.2c-0.3,1.4-0.4,2.9-0.4,4.5c0,1.8,0.4,3.6,1.1,5.5c0.9,2.3,2.1,3.6,3.6,3.9
		c1.5,0.3,3.1-0.4,4.9-2c2.3-2,3.8-5,4.6-9C274.8-65.2,274.9-66.7,274.9-68.2"/>
	<path id="path4634" class="st3" d="M329.1-70.1c0,6.7-2.6,12.1-7.7,16c-4.5,3.5-10.3,5.5-17.4,6.1v17.7c0,1.5-0.5,2.7-1.5,3.7
		c-1,1-2.2,1.4-3.7,1.4c-1.5,0-2.7-0.5-3.7-1.4c-1-1-1.4-2.2-1.4-3.7v-54c0-1.5,0.4-2.7,1.3-3.7c1-1,2.2-1.5,3.7-1.5
		c2.7-0.1,4.4,1.1,5,3.6c3.2-2.6,6.5-3.8,9.7-3.8c4.6,0,8.5,2.2,11.5,6.5C327.7-79.3,329.1-75,329.1-70.1 M318.9-72.2
		c-0.1-1.7-0.6-3.2-1.6-4.6c-1-1.4-2.3-2.1-3.9-2.1c-3,0-6.1,2.4-9.4,7.2v13.1C314.2-59.4,319.2-64,318.9-72.2"/>
</g>
</svg>
