<?xml version="1.0" encoding="utf-8"?>
<!-- Generator: Adobe Illustrator 26.1.0, SVG Export Plug-In . SVG Version: 6.00 Build 0)  -->
<svg version="1.1" id="Layer_1" xmlns="http://www.w3.org/2000/svg" xmlns:xlink="http://www.w3.org/1999/xlink" x="0px" y="0px"
	 viewBox="0 0 700 700" style="enable-background:new 0 0 700 700;" xml:space="preserve">
<g>
	<path d="M120.4,202.4c-0.5,3.9-0.8,7.8-0.8,11.9c0,32.9,17.1,61.8,42.8,78.5c6.5,58.3,55.9,103.7,116,103.7
		c28.9,0,55.3-10.5,75.7-27.9l20.5,20.5l13.2-13.2l-20.5-20.5c17.4-20.4,27.9-46.8,27.9-75.7c0-60.1-45.4-109.5-103.7-116
		c-16.6-25.7-45.5-42.8-78.5-42.8c-4,0-8,0.3-11.9,0.8c-7.8-27.4-32.9-47.6-62.9-47.6c-36.1,0-65.4,29.3-65.4,65.4
		C72.9,169.5,93,194.6,120.4,202.4L120.4,202.4z M138.3,92.8c20.8,0,39.2,14,44.9,34c2.3,8.1,9.7,13.6,18,13.6c0.8,0,1.6,0,2.4-0.1
		c3.7-0.5,6.7-0.7,9.5-0.7c25.4,0,48.9,12.8,62.8,34.3c3,4.7,8,7.8,13.6,8.4c49.7,5.5,87.1,47.4,87.1,97.4
		c0,23.7-8.4,45.4-22.5,62.4l-28.9-28.9v-61.5h-18.7v42.8l-37.4-37.4v-52.2h-18.7v33.5L213,201.1l0-42.8h-18.7v24.2l-30.8-30.8
		l-13.2,13.2l30.8,30.8H157v18.7h42.8l37.4,37.4h-42.8v18.7h61.5l37.4,37.4h-52.2v18.7h70.9l28.9,28.9c-17,14-38.7,22.5-62.4,22.5
		c-50,0-91.9-37.4-97.4-87.1c-0.6-5.6-3.7-10.6-8.4-13.6c-21.5-13.9-34.3-37.3-34.3-62.8c0-2.8,0.2-5.8,0.7-9.5
		c1.2-9.2-4.6-17.8-13.4-20.3c-20-5.7-34-24.1-34-44.9C91.6,113.8,112.5,92.8,138.3,92.8L138.3,92.8z"/>
	<path d="M626,159.2c-2.4-4.6-8-6.4-12.6-4L584,170.6l11.9-26.9c2.1-4.7-0.1-10.2-4.8-12.3c-4.7-2.1-10.2,0.1-12.3,4.8L566.9,163
		l-8.5-32.1c-1.3-5-6.4-8-11.4-6.6c-5,1.3-8,6.4-6.6,11.4l11.1,41.8c-33.1-5.9-67.3,11.2-81.5,43.3c-0.2,0.3-0.3,0.7-0.4,1.1
		l-57.9,193.3l-86.5,0H147.6c-5.2,0-9.3,4.2-9.3,9.3c0,113.3,92.2,205.5,205.5,205.5h37.4c113.3,0,205.5-92.2,205.5-205.5
		c0-5.2-4.2-9.3-9.3-9.3h-50.9l79.7-132.9c0.2-0.3,0.4-0.7,0.5-1c14.2-32.1,3.8-68.9-22.9-89.4l38.3-20
		C626.6,169.4,628.4,163.8,626,159.2L626,159.2z M203.7,433.8h112.1l0,55.8c-0.6,3.3-8.7,13-18.7,13s-18.1-9.7-18.7-12.7v-18.7
		c0-15.5-12.6-28-28-28s-28,12.6-28,28c0,5.2-4.2,9.3-9.3,9.3c-5.2,0-9.3-4.2-9.3-9.3L203.7,433.8z M567.8,433.8
		c-0.6,12.8-2.6,25.3-5.7,37.4H455.9v18.7h100.2c-2.4,6.4-5.2,12.6-8.3,18.7h-73.2v18.7h62.3c-33.5,50.6-90.7,84.1-155.7,84.1h-37.4
		c-99.9,0-181.7-78.8-186.6-177.5H185v37.4c0,15.5,12.6,28,28,28s28-12.6,28-28c0-5.2,4.2-9.3,9.3-9.3c5.2,0,9.3,4.2,9.3,9.3v18.7
		c0,12.4,16.7,31.4,37.4,31.4s37.4-19,37.4-31.4v-56.1L567.8,433.8z M589.8,273.1l-24.5,40.9L528,297.5l-7.5,17.1l35.2,15.5l-51,85
		h-73.6l20.9-69.5l37.3,16.5l7.5-17.1l-39.4-17.4l27-90.2l50.1,22.1l7.5-17.1l-50.5-22.3c14.8-22.4,44-31.6,69.4-20.4
		C589.1,212.1,601.9,244.9,589.8,273.1L589.8,273.1z"/>
	<path d="M486.3,299.5l7.6-17.1l17.1,7.5l-7.6,17.1L486.3,299.5z"/>
	<path d="M468.4,177.5c2.1-1.3,3.6-3.4,4.1-5.9c9.9-44.6-18.2-89.2-62.7-99.5c-44.5-10.3-89.3,17.5-99.9,61.9
		c-0.6,2.4-0.2,5,1.1,7.1c1.3,2.1,3.4,3.6,5.8,4.2l71.5,16.5h0h0l72.9,16.8c0.7,0.2,1.4,0.2,2.1,0.2
		C465.2,178.9,466.9,178.4,468.4,177.5L468.4,177.5z M331,129.4c5.5-13.7,15.4-24.6,27.5-31.8l16.9,42L331,129.4z M375.8,90.6
		c9.5-2.4,19.7-2.6,29.9-0.3c10.4,2.4,19.6,7.2,27.2,13.7l-38.4,33.1L375.8,90.6z M410.7,147.8l34.5-29.8
		c7.6,11.6,11.6,25.7,10.5,40.2L410.7,147.8z"/>
</g>
</svg>
